<?xml version="1.0" standalone="no"?>
<!DOCTYPE svg PUBLIC "-//W3C//DTD SVG 1.1//EN" "http://www.w3.org/Graphics/SVG/1.1/DTD/svg11.dtd" >
<svg xmlns="http://www.w3.org/2000/svg">
<metadata></metadata>
<defs>
<font id="sequilight" horiz-adv-x="923" >
<font-face units-per-em="2048" ascent="1536" descent="-512" />
<missing-glyph horiz-adv-x="716" />
<glyph horiz-adv-x="2048" />
<glyph horiz-adv-x="2048" />
<glyph unicode="&#xd;" horiz-adv-x="2048" />
<glyph unicode=" "  horiz-adv-x="716" />
<glyph unicode="&#x09;" horiz-adv-x="716" />
<glyph unicode="&#xa0;" horiz-adv-x="716" />
<glyph unicode="!" horiz-adv-x="221" d="M0 59q0 16 6 25q11 11 21 16q4 2 16 2q16 0 25 -6q12 -12 16 -20t4 -17q0 -12 -8 -24q-6 -10 -21 -17q-8 -4 -16 -4q-11 0 -25 9q-9 6 -16 20q-2 4 -2 16zM29 225v1321q0 15 14 15q6 0 11 -4.5t5 -10.5v-1321q0 -6 -5 -10t-11 -4q-14 0 -14 14z" />
<glyph unicode="&#x22;" horiz-adv-x="329" d="M0 1380v166q0 15 14 15q6 0 11.5 -4.5t5.5 -10.5v-166q0 -6 -5.5 -11t-11.5 -5t-10 5t-4 11zM166 1380v166q0 15 14 15q6 0 11.5 -4.5t5.5 -10.5v-166q0 -6 -5.5 -11t-11.5 -5t-10 5t-4 11z" />
<glyph unicode="#" horiz-adv-x="1314" d="M0 592q0 14 14 14h301l95 365h-396q-14 0 -14 14q0 6 4 11t10 5h404l141 549q1 6 8 9.5t13 1.5q14 -3 10 -19l-141 -541h362l143 549q4 15 19 11q6 -2 9.5 -7.5t2.5 -11.5l-141 -541h321q7 0 12 -5t5 -11q0 -14 -17 -14h-329l-95 -365h424q17 0 17 -14q0 -6 -5 -11.5 t-12 -5.5h-432l-143 -548q-4 -15 -19 -11q-6 2 -9.5 7.5t-0.5 11.5l139 540h-362l-143 -548q-4 -15 -19 -11q-14 3 -10 19l141 540h-293q-6 0 -10 5.5t-4 11.5zM346 606h363l94 365h-363z" />
<glyph unicode="$" d="M0 401q0 6 5 10.5t11 4.5t10.5 -4.5t4.5 -10.5q3 -120 78 -217q82 -99 198 -127q40 -8 62 -8v731l-64 17q-4 -4 -4 0q-135 30 -217 139q-84 105 -84 238q0 44 12 94q35 132 142 213q110 80 241 80q51 0 94 -11q136 -35 218 -137q81 -108 84 -235q0 -6 -5.5 -11.5 t-11.5 -5.5t-10 5.5t-4 11.5q-3 118 -78 215q-78 98 -199 127q-36 10 -84 10v-725l90 -23q138 -35 218 -139q84 -108 84 -237q0 -45 -13 -95q-35 -133 -141 -213q-109 -82 -238 -82v-221q0 -16 -16 -16q-6 0 -10 5t-4 11v221q-27 2 -68 13q-130 29 -217 137q-81 105 -84 235 zM31 1174q0 -123 75 -220q75 -91 187 -125h4l72 -18v719q-111 -9 -197 -74q-100 -77 -129 -196q-12 -44 -12 -86zM399 47q117 0 219 76q101 78 130 196q12 43 12 87q0 118 -76 217q-77 99 -201 129l-84 20v-725z" />
<glyph unicode="%" d="M1.5 26q-2.5 7 0.5 11l758 1499q9 13 20 6q14 -7 8 -20l-757 -1497q-3 -6 -10 -9t-11 0q-6 3 -8.5 10zM2 1364q0 60 33 111q32 49 86 71q38 15 78 15q56 0 110 -33q48 -31 70 -86q16 -40 16 -78q0 -57 -33 -111q-37 -50 -88 -69q-39 -17 -75 -17q-60 0 -111 33 q-54 40 -72 88q-14 32 -14 76zM33 1364q0 -48 26 -92q29 -43 74 -62q30 -12 66 -12q49 0 92 29q40 27 61 73q13 29 13 64q0 50 -29 94q-28 42 -74 60q-27 12 -63 12q-49 0 -95 -27q-40 -27 -59 -73q-12 -30 -12 -66zM395 213q0 57 33 111q37 50 88 69q39 17 76 17 q59 0 110 -33q52 -39 72 -88q14 -32 14 -76q0 -61 -32 -111q-32 -49 -86 -71q-42 -17 -78 -17q-53 0 -111 35q-47 30 -69 86q-17 43 -17 78zM426 213q0 -51 29 -94t73 -60q32 -14 64 -14q45 0 94 29q40 27 59 73q13 32 13 66q0 46 -27 92q-26 39 -74 62q-30 12 -65 12 q-48 0 -92 -29q-45 -30 -62 -74q-12 -27 -12 -63z" />
<glyph unicode="'" horiz-adv-x="163" d="M0 1380v166q0 15 14 15q6 0 11.5 -4.5t5.5 -10.5v-166q0 -6 -5.5 -11t-11.5 -5t-10 5t-4 11z" />
<glyph unicode="(" horiz-adv-x="528" d="M0 670q0 179 55 368q65 213 160 355q69 104 152 166q13 7 22 -5q8 -12 -4 -20q-62 -46 -111 -113q-51 -65 -96 -151q-84 -172 -123 -365q-24 -123 -24 -235q0 -173 55 -359q59 -200 156 -344q67 -102 145 -160q12 -8 4 -20q-11 -15 -22 -4q-56 40 -119 117 q-47 63 -98 157q-84 169 -127 373q-25 131 -25 240z" />
<glyph unicode=")" horiz-adv-x="528" d="M4 -213q-9 13 4 20q55 41 111 113q49 63 96 152q85 175 123 364q27 123 27 234q0 160 -56 360q-60 203 -155 344q-66 101 -146 160q-13 9 -2 20q7 14 21 5q56 -41 118 -119q53 -68 97 -158q88 -171 127 -371q26 -121 26 -241q0 -171 -57 -367q-59 -202 -160 -354 q-71 -107 -153 -166q-4 -5 -11 -3.5t-10 7.5z" />
<glyph unicode="*" horiz-adv-x="919" d="M0 1182q0 16 14 16h305l-215 215q-4 5 -4 12t4 11q10 10 21 0l237 -238v348q0 6 4.5 10.5t10.5 4.5q16 0 16 -15v-336l246 246q5 4 12 4t11 -4q10 -10 0 -20l-238 -238h348q14 0 14 -16q0 -15 -14 -15h-379l269 -268q4 -5 4 -11t-4 -9q-12 -11 -23 0l-246 245v-336 q0 -16 -16 -16q-6 0 -10.5 5t-4.5 11v349l-237 -238q-5 -5 -11.5 -5t-9.5 5q-4 5 -4 12t4 11l246 245h-336q-14 0 -14 15z" />
<glyph unicode="+" horiz-adv-x="919" d="M0 788q0 15 14 15h348v379q0 16 15 16q16 0 16 -16v-379h379q14 0 14 -15q0 -6 -4 -11t-10 -5h-379v-379q0 -14 -16 -14q-15 0 -15 14v379h-348q-6 0 -10 5t-4 11z" />
<glyph unicode="," horiz-adv-x="331" d="M2 -199l166 402q7 14 20 8q6 -2 9 -8.5t0 -12.5l-166 -401q-7 -15 -21 -8q-12 6 -8 20z" />
<glyph unicode="-" horiz-adv-x="526" d="M0 788q0 15 14 15h363q16 0 16 -15q0 -16 -16 -16h-363q-6 0 -10 5t-4 11z" />
<glyph unicode="." horiz-adv-x="221" d="M0 59q0 16 6 25q11 11 21 16q4 2 16 2q16 0 25 -6q12 -12 16 -20t4 -17q0 -12 -8 -24q-6 -10 -21 -17q-8 -4 -16 -4q-11 0 -25 9q-9 6 -16 20q-2 4 -2 16z" />
<glyph unicode="/" horiz-adv-x="530" d="M2 35l363 1515q4 15 18 11q6 -2 9.5 -7.5t2.5 -11.5l-364 -1515q-4 -15 -19 -11q-14 3 -10 19z" />
<glyph unicode="0" horiz-adv-x="972" d="M16 393v2v15v2v762q0 79 31 149q30 71 84 125q116 113 279 113q124 0 221 -66q98 -66 141 -172q31 -70 31 -149v-764q0 -164 -115 -279q-117 -117 -278 -117q-162 0 -279 117q-109 109 -115 262zM47 389q6 -105 62 -182q59 -89 159 -133q69 -29 142 -29q108 0 202 64 q89 59 133 159q27 73 27 142v735zM47 432l725 756q-3 66 -27 125q-27 62 -77 112q-108 105 -258 105q-111 0 -203 -60q-90 -62 -131 -157q-29 -69 -29 -139v-742z" />
<glyph unicode="1" horiz-adv-x="528" d="M2 1183q0 7 4 11l363 362q9 9 16 5q10 -3 10 -15v-1515q0 -6 -4.5 -11.5t-11.5 -5.5q-6 0 -10 5.5t-4 11.5v1478l-338 -338q-11 -11 -21 0q-4 5 -4 12z" />
<glyph unicode="2" horiz-adv-x="919" d="M0 1167q0 164 115 279t278 115q164 0 279 -115q114 -114 114 -279q0 -105 -47 -188l-340 -934h373q14 0 14 -14q0 -6 -4 -11.5t-10 -5.5h-395q-3 0 -12 9q-3 6 -3 14l314 856l-4 -4q-115 -115 -279 -115q-163 0 -278 115t-115 278zM31 1167q0 -113 61 -202 q59 -90 160 -134q62 -26 141 -26q114 0 203 61q88 58 133 160q27 73 27 141q0 112 -62 203q-59 89 -159 133q-73 27 -142 27q-112 0 -203 -62q-89 -59 -133 -159q-26 -62 -26 -142z" />
<glyph unicode="3" horiz-adv-x="1120" d="M2 508q0 160 92 289q10 13 23 4q12 -8 4 -21q-88 -120 -88 -272q0 -94 35.5 -179t99.5 -147q63 -64 147.5 -100.5t178.5 -36.5q93 0 178 36.5t149 100.5q63 63 99 148t36 178t-36 178t-99 150q-65 63 -149.5 99t-177.5 36h-2h-3h-2q0 2 -2 2h-2v2h-2l-477 561q-6 5 -2 16 q3 9 14 9h478q8 0 10 -5q6 -3 6 -10v-545q193 -6 332 -145q68 -67 106.5 -157.5t38.5 -190.5t-38.5 -190.5t-106.5 -157.5q-67 -69 -157 -107.5t-191 -38.5q-100 0 -191 38.5t-158 107.5q-68 66 -105.5 156.5t-37.5 191.5zM49 1530l430 -502v502h-430z" />
<glyph unicode="4" horiz-adv-x="921" d="M2 782q-3 10 4 17l758 757q8 8 16 5t8 -15v-561v-197v-757q0 -6 -4 -11.5t-10 -5.5t-11 5.5t-5 11.5v741h-742q-11 0 -14 10zM53 803h705v182v524z" />
<glyph unicode="5" horiz-adv-x="1118" d="M0 508q0 160 92 289q10 13 23 4q12 -8 4 -21q-88 -120 -88 -272q0 -94 35.5 -179t99.5 -147q63 -64 147.5 -100.5t178.5 -36.5q93 0 178 36.5t149 100.5q63 63 99 148t36 178t-36 178t-99 150q-65 63 -149.5 99t-177.5 36h-3h-2h-2l-2 2h-2v2l-2 2l-2 2v2v2v2v561 q0 8 4 10q3 5 11 5h477q11 0 14 -9q3 -11 -2 -16l-457 -537q185 -12 316 -143q68 -67 106.5 -157.5t38.5 -190.5t-38.5 -190.5t-106.5 -157.5q-67 -69 -157 -107.5t-191 -38.5q-100 0 -191 38.5t-158 107.5q-68 66 -105.5 156.5t-37.5 191.5zM508 1028l428 502h-428v-502z " />
<glyph unicode="6" horiz-adv-x="1118" d="M0 508q0 101 37.5 191.5t105.5 156.5q17 17 27 25l590 675q11 11 22 3q10 -10 2 -23l-516 -588q109 53 224 53q101 0 191 -38t157 -107q68 -67 106.5 -157.5t38.5 -190.5t-38.5 -190.5t-106.5 -157.5q-67 -69 -157 -107.5t-191 -38.5q-100 0 -191 38.5t-158 107.5 q-68 66 -105.5 156.5t-37.5 191.5zM31 508q0 -94 35.5 -179t99.5 -147q63 -64 147.5 -100.5t178.5 -36.5q93 0 178 36.5t149 100.5q63 63 99 148t36 178t-36 178t-99 150q-65 63 -149.5 99t-177.5 36t-178 -36t-148 -99q-64 -64 -99.5 -149t-35.5 -179z" />
<glyph unicode="7" d="M2 985q0 14 10 14l717 189l-719 344q-14 7 -8 20q3 6 10 9t11 0l757 -365q11 -4 8 -14q0 -12 -10 -15l-700 -182l700 -182q10 -3 10 -15v-757q0 -6 -4 -11.5t-10 -5.5t-11 5.5t-5 11.5v745l-746 195q-10 3 -10 14z" />
<glyph unicode="8" horiz-adv-x="1118" d="M0 508q0 101 37.5 191.5t105.5 156.5q18 21 56 47q-101 112 -101 264q0 164 115 279t279 115q163 0 278 -115q117 -117 117 -279q0 -150 -103 -264q38 -26 56 -47q68 -67 106.5 -157.5t38.5 -190.5t-38.5 -190.5t-106.5 -157.5q-67 -69 -157 -107.5t-191 -38.5 q-100 0 -191 38.5t-158 107.5q-68 66 -105.5 156.5t-37.5 191.5zM31 508q0 -94 35.5 -179t99.5 -147q63 -64 147.5 -100.5t178.5 -36.5q93 0 178 36.5t149 100.5q63 63 99 148t36 178t-36 178t-99 150q-37 33 -55 45q-119 -109 -272 -109q-154 0 -273 109q-24 -16 -53 -45 q-64 -64 -99.5 -149t-35.5 -179zM129 1167q0 -113 61 -202q17 -27 33 -43q126 79 269 79q142 0 268 -79q43 46 67 104q29 69 29 141q0 111 -63 203q-58 88 -160 133q-73 27 -141 27q-112 0 -203 -62q-92 -63 -131 -159q-29 -69 -29 -142zM246 899q55 -48 104 -68 q67 -28 142 -28q110 0 202 63q27 17 43 33q-115 72 -245 72q-131 0 -246 -72z" />
<glyph unicode="9" horiz-adv-x="919" d="M0 1167q0 164 115 279t278 115q164 0 279 -115q114 -114 114 -279q0 -105 -47 -188l-348 -954q-4 -16 -18 -9q-6 1 -9.5 8t-1.5 13l314 856l-4 -4q-115 -115 -279 -115q-163 0 -278 115t-115 278zM31 1167q0 -113 61 -202q59 -90 160 -134q62 -26 141 -26q114 0 203 61 q88 58 133 160q27 73 27 141q0 112 -62 203q-59 89 -159 133q-73 27 -142 27q-112 0 -203 -62q-89 -59 -133 -159q-26 -62 -26 -142z" />
<glyph unicode=":" horiz-adv-x="221" d="M0 59q0 16 6 25q11 11 21 16q4 2 16 2q16 0 25 -6q12 -12 16 -20t4 -17q0 -12 -8 -24q-4 -9 -21 -17q-8 -4 -16 -4q-11 0 -25 9q-9 6 -16 20q-2 4 -2 16zM0 819q0 16 6 25q11 11 21 16q4 2 16 2q16 0 25 -6q12 -12 16 -20t4 -17q0 -12 -8 -24q-6 -10 -21 -17 q-8 -4 -16 -4q-13 0 -25 8q-8 6 -16 21q-2 4 -2 16z" />
<glyph unicode=";" horiz-adv-x="360" d="M2 -199l166 402q7 14 20 8q6 -2 9 -8.5t0 -12.5l-166 -401q-7 -15 -21 -8q-12 6 -8 20zM139 788q0 16 6 25q11 11 21 16q4 2 16 2q16 0 25 -6q10 -7 16 -20q4 -8 4 -17q0 -12 -8 -24q-5 -7 -18 -16q-15 -5 -19 -5q-6 0 -24 9q-11 7 -17 20q-2 4 -2 16z" />
<glyph unicode="&#x3c;" horiz-adv-x="921" d="M0 788q0 10 8 15l756 393q15 8 22 -6t-8 -21l-731 -381l731 -380q15 -7 8 -21t-22 -6l-756 393q-8 5 -8 14z" />
<glyph unicode="=" horiz-adv-x="919" d="M0 592q0 14 14 14h758q14 0 14 -14q0 -6 -4 -11.5t-10 -5.5h-758q-6 0 -10 5.5t-4 11.5zM0 985q0 6 4 11t10 5h758q6 0 10 -5t4 -11q0 -14 -14 -14h-758q-14 0 -14 14z" />
<glyph unicode="&#x3e;" horiz-adv-x="921" d="M2 387q-7 14 8 21l731 380l-731 381q-15 7 -8 21q3 6 10 7.5t11 -1.5l757 -393q8 -5 8 -15q0 -9 -8 -14l-757 -393q-4 -3 -11 -1.5t-10 7.5z" />
<glyph unicode="?" horiz-adv-x="907" d="M0 1184q3 130 84 231q82 106 211 135q43 11 92 11q130 0 238 -78q105 -81 139 -211q10 -52 10 -92q0 -128 -80 -232q-79 -102 -209 -137h-2l-145 -35q-91 -24 -148 -96q-55 -71 -55 -160q0 -32 8 -63q21 -87 97 -144q71 -55 161 -55q35 0 66 8q90 21 145 92q58 71 58 160 q0 14 14 14q16 0 16 -16q0 -97 -63 -176q-64 -80 -162 -104q-37 -9 -74 -9q-99 0 -180 62q-83 63 -106 162q-11 42 -11 69q0 100 64 180q65 82 162 105l141 35h2q122 30 197 127q73 92 73 213q0 50 -10 86q-29 117 -127 192q-98 72 -219 72q-50 0 -86 -10 q-118 -27 -195 -123q-72 -93 -75 -213q0 -6 -4.5 -10.5t-10.5 -4.5t-11 4.5t-5 10.5zM334 61q0 13 6 25q12 12 20 14q8 4 17 4q13 0 24 -8q13 -8 15 -18q4 -12 4 -17q0 -16 -8 -24q-5 -10 -19 -17q-8 -4 -16 -4q-11 0 -25 9q-7 5 -16 18q-2 6 -2 18z" />
<glyph unicode="@" horiz-adv-x="1552" d="M0 489q0 143 55 273t152 229q99 97 229 152t273 55q145 0 274.5 -55t226.5 -152q99 -99 154 -228.5t55 -273.5q0 -159 -67 -299q-60 -134 -178 -237q-1 -2 -3 -2h-2h-2v-2h-2h-2h-2v2h-2h-2q0 2 -2 2h-2v2l-2 2l-283 563l-561 -375q-10 -6 -18 2q-12 8 -4 19l383 766 q3 8 14 8q9 0 12 -8l475 -942q95 85 156 213q64 134 64 286q0 137 -52.5 261.5t-146.5 218.5t-218 146t-263 52q-138 0 -262 -52t-218 -146t-146 -218t-52 -262q0 -139 52 -263t146 -218t218 -146t262 -52q16 0 16 -15q0 -16 -16 -16q-144 0 -273.5 55t-228.5 154 q-97 97 -152 226.5t-55 274.5zM338 205l516 344l-172 342z" />
<glyph unicode="A" horiz-adv-x="1681" d="M2 37l758 1515q6 9 14 9t14 -9l758 -1515q2 -2 2 -5t-2 -6q-2 -7 -8 -10q-2 -2 -4 -2t-6 2q-6 3 -10 9l-371 741l-1122 -748q-5 -3 -10 -3t-9 3q-5 5 -5 12q0 3 1 7zM55 76l1078 719l-359 716z" />
<glyph unicode="B" horiz-adv-x="1314" d="M0 606v182v379q0 164 115 279t278 115q164 0 279 -115q114 -114 114 -279v-2q171 -61 281 -209q115 -157 115 -350q0 -120 -45.5 -229t-128.5 -189q-81 -81 -189 -126.5t-229 -45.5q-120 0 -228.5 45.5t-189.5 126.5t-126.5 189.5t-45.5 228.5zM31 606q0 -114 43 -216.5 t121 -178.5q76 -78 178.5 -121t216.5 -43q115 0 217 43t180 121q77 77 120.5 179.5t43.5 215.5q0 185 -109 332q-96 134 -256 195q-12 -142 -114 -244q-117 -117 -279 -117h-362v-166zM31 803h362q111 0 203 63q88 58 133 160q27 73 27 141q0 112 -62 203q-63 92 -159 131 q-69 29 -142 29q-112 0 -203 -62q-89 -59 -133 -159q-26 -62 -26 -142v-364z" />
<glyph unicode="C" horiz-adv-x="1316" d="M0 788q0 157 59.5 299t165.5 248t248 166t299 60q218 0 402 -113q8 -5 8 -12q0 -4 -2 -9q-3 -5 -9.5 -6.5t-11.5 2.5q-178 107 -387 107q-152 0 -287.5 -57t-236.5 -160q-103 -101 -160 -237t-57 -288t57 -287.5t160 -236.5q102 -103 237.5 -161t286.5 -58q206 0 387 109 q13 8 21 -4q2 -5 2 -9q0 -8 -8 -14q-189 -113 -402 -113q-156 0 -298 60.5t-249 167.5q-106 106 -165.5 247.5t-59.5 298.5z" />
<glyph unicode="D" horiz-adv-x="1286" d="M0 31v1423q0 8 8 12q173 95 371 95q158 0 299 -59.5t248 -166.5q107 -106 167 -247.5t60 -299.5q0 -157 -60 -298.5t-167 -247.5q-107 -107 -248 -167.5t-299 -60.5l-12 6q-2 4 -2 15l366 1407q-161 88 -352 88q-185 0 -348 -86v-1413q0 -6 -4.5 -11.5t-10.5 -5.5 t-11 5.5t-5 11.5zM399 47q145 3 275.5 60t230.5 157q102 102 159.5 237.5t57.5 286.5t-57.5 287t-159.5 238q-63 63 -145 114z" />
<glyph unicode="E" d="M2 395q0 12 10 15l701 182l-701 182q-10 3 -10 14q0 12 10 15l701 182l-701 182q-10 3 -10 15q-1 2 -1 4q0 7 9 10l758 365q2 2 4 1q2 0 6 -1q6 -3 10 -9q2 -4 2 -7q0 -8 -10 -13l-719 -344l717 -189q10 0 10 -14q0 -11 -10 -14l-700 -183l700 -182q10 -3 10 -14 q0 -14 -10 -17l-717 -186l719 -344q6 -3 8 -9q1 -3 2 -5q0 -3 -2 -6q-4 -6 -10 -9q-3 -2 -5.5 -2t-4.5 2l-758 365q-9 3 -9 10q0 2 1 4z" />
<glyph unicode="F" d="M2 31v757q0 12 10 15l701 182l-701 182q-10 3 -10 15q-1 2 -1 4q0 7 9 10l758 365q2 2 4 1q2 0 6 -1q6 -3 10 -9q2 -4 2 -7q0 -8 -10 -13l-719 -344l717 -189q10 0 10 -14q0 -11 -10 -14l-745 -195v-745q0 -6 -5.5 -11.5t-11.5 -5.5t-10 5.5t-4 11.5z" />
<glyph unicode="G" horiz-adv-x="1679" d="M0 788q0 157 60 298.5t167 248.5q106 106 248 166t299 60q218 0 402 -113q13 -7 6 -21q-9 -14 -23 -4q-175 107 -385 107q-152 0 -287.5 -57t-236.5 -160q-100 -98 -157 -229t-60 -277l1470 194q16 0 19 -12q24 -95 24 -201q0 -157 -59.5 -298.5t-165.5 -247.5 q-107 -107 -249 -167.5t-298 -60.5t-298 60.5t-249 167.5t-167 248t-60 298zM33 774q1 -147 58.5 -278.5t158.5 -231.5q102 -103 237.5 -161t286.5 -58t286.5 58t237.5 161q103 102 160.5 237.5t57.5 286.5q0 96 -21 181z" />
<glyph unicode="H" horiz-adv-x="1314" d="M0 31v1515q0 12 10 15q2 1 4 1q7 0 13 -8l563 -741l563 741q5 8 12 8q3 0 6 -1q11 -4 11 -15v-1515q0 -11 -11 -15q-4 -1 -7 -1q-6 0 -11 5l-563 744l-563 -744q-5 -5 -11 -5q-3 0 -6 1q-10 3 -10 15zM31 76l540 712l-540 713v-1425zM610 788l541 -712v1425z" />
<glyph unicode="I" horiz-adv-x="163" d="M0 31v1515q0 15 14 15q6 0 11.5 -4.5t5.5 -10.5v-1515q0 -6 -5.5 -11.5t-11.5 -5.5t-10 5.5t-4 11.5z" />
<glyph unicode="J" horiz-adv-x="919" d="M0 23v2v2v2v2v2v2v2l2 2v2h2l752 754v751q0 6 5 10.5t11 4.5q14 0 14 -15v-1515q0 -9 -4 -11q-3 -6 -10 -6h-758h-2v2h-2h-2h-2v2h-2q0 2 -2 2v3h-2zM51 45h705v707z" />
<glyph unicode="K" horiz-adv-x="921" d="M0 31v757v758q0 15 14 15q6 0 11.5 -4.5t5.5 -10.5v-721l731 731q5 5 10 5l10 -5q5 -5 5 -10t-5 -10l-745 -748l745 -747q5 -5 5 -11q0 -3 -1 -5q-4 -11 -14 -11h-758q-7 0 -10 6q-4 2 -4 11zM31 45h704l-704 707v-707z" />
<glyph unicode="L" horiz-adv-x="919" d="M0 31v1515q0 15 14 15q6 0 11.5 -4.5t5.5 -10.5v-751l751 -754h2v-2q2 0 2 -2v-2v-2v-2v-2v-2v-2v-2h-2v-3l-2 -2h-2q0 -2 -2 -2h-2h-2v-2h-2h-758q-7 0 -10 6q-4 2 -4 11zM31 45h704l-704 707v-707z" />
<glyph unicode="M" horiz-adv-x="1681" d="M2 35l363 1515q4 11 14 11q12 0 16 -11l379 -1458l379 1458q4 11 16 11q11 0 15 -11l362 -1515q1 -2 1 -5q0 -5 -3 -10q-6 -6 -12 -6h-1516q-6 0 -12 6q-3 5 -3 10q0 3 1 5zM37 45h717l-373 1438zM795 45h718l-346 1438z" />
<glyph unicode="N" horiz-adv-x="919" d="M0 31v1515q0 12 10 15q2 1 4 1q8 0 15 -10l727 -1456v1450q0 6 5 10.5t11 4.5q14 0 14 -15v-1515v-2v-2v-2v-2h-2v-3h-2v-2h-2l-2 -2h-2h-2v-2h-2h-758q-7 0 -10 6q-4 2 -4 11zM31 45h717l-717 1436v-1436z" />
<glyph unicode="O" horiz-adv-x="1679" d="M0 788q0 157 59.5 299t165.5 248t248 166t299 60t299 -60t248 -166q107 -107 167 -248.5t60 -298.5t-60 -298t-167 -248t-249 -167.5t-298 -60.5t-298 60.5t-249 167.5q-106 106 -165.5 247.5t-59.5 298.5zM31 788q0 -152 57 -287.5t160 -236.5q102 -103 237.5 -161 t286.5 -58t286.5 58t237.5 161q103 102 161.5 237.5t58.5 286.5t-58.5 287t-161.5 238q-101 103 -236.5 160t-287.5 57t-287.5 -57t-236.5 -160q-103 -101 -160 -237t-57 -288z" />
<glyph unicode="P" horiz-adv-x="921" d="M0 31v1136q0 164 115 279t278 115q164 0 279 -115q116 -116 116 -279q0 -162 -116 -278q-117 -117 -279 -117h-362v-741q0 -6 -5.5 -11.5t-11.5 -5.5t-10 5.5t-4 11.5zM31 803h362q111 0 203 63q88 58 133 160q29 69 29 141q0 109 -64 203q-59 89 -159 133 q-73 27 -142 27q-112 0 -203 -62q-89 -59 -133 -159q-26 -62 -26 -142v-364z" />
<glyph unicode="Q" horiz-adv-x="1679" d="M0 788q0 157 59.5 299t165.5 248t248 166t299 60q267 0 475 -162q206 -163 273 -410q3 -14 -13 -18l-706 -191l518 -516l221 -223q5 -5 5 -10.5t-5 -10.5q-10 -10 -20 0l-211 211q-107 -102 -245.5 -159.5t-291.5 -57.5q-156 0 -298 60.5t-249 167.5 q-106 106 -165.5 247.5t-59.5 298.5zM31 788q0 -152 57 -287.5t160 -236.5q102 -103 237.5 -161t286.5 -58q146 0 279 55t235 152l-524 526q-7 7 -4 15q0 7 10 10l717 192q-65 231 -258 379q-199 156 -455 156q-152 0 -287.5 -57t-236.5 -160q-103 -101 -160 -237t-57 -288z " />
<glyph unicode="R" horiz-adv-x="921" d="M0 31v757q0 9 4 11q2 4 10 4h224l-236 356q-2 2 -2 8q0 164 115 279t278 115q164 0 279 -115q116 -116 116 -279q0 -162 -116 -278q-117 -117 -279 -117h-98l489 -733q3 -4 2.5 -11t-6.5 -10q-5 -4 -11 -2.5t-9 7.5l-502 749h-227v-741q0 -6 -5.5 -11.5t-11.5 -5.5 t-10 5.5t-4 11.5zM31 1171l243 -368h119q111 0 203 63q88 58 133 160q29 69 29 141q0 109 -64 203q-59 89 -159 133q-73 27 -142 27q-112 0 -203 -62q-89 -59 -133 -159q-26 -70 -26 -138z" />
<glyph unicode="S" d="M0 401q0 6 5 10.5t11 4.5t10.5 -4.5t4.5 -10.5q3 -120 78 -217q82 -99 198 -127q52 -10 88 -10q125 0 223 76q101 78 130 196q12 43 12 87q0 118 -76 217q-77 99 -201 129l-178 45q-4 -4 -4 0q-135 30 -217 139q-84 105 -84 238q0 44 12 94q35 132 142 213q110 80 241 80 q51 0 94 -11q136 -35 218 -137q81 -108 84 -235q0 -6 -5.5 -11.5t-11.5 -5.5t-10 5.5t-4 11.5q-3 118 -78 215q-78 98 -199 127q-39 10 -88 10q-124 0 -223 -74q-100 -77 -129 -196q-12 -44 -12 -86q0 -123 75 -220q75 -91 187 -125h4l192 -47q138 -35 218 -139 q84 -108 84 -237q0 -45 -13 -95q-35 -133 -141 -213q-108 -82 -242 -82q-44 0 -94 13q-130 29 -217 137q-81 105 -84 235z" />
<glyph unicode="T" horiz-adv-x="921" d="M0 1538v2v2v2v4v2v2l2 2v2q2 0 2 3h2v2h2h2h2h2h758q11 0 14 -9q1 -2 1 -5q0 -6 -5 -13l-389 -358v-1145q0 -6 -4.5 -11.5t-11.5 -5.5q-6 0 -10.5 5.5t-4.5 11.5v1145l-358 360h-2v2h-2zM51 1530l328 -326l354 326h-682z" />
<glyph unicode="U" horiz-adv-x="921" d="M2 393v2v15v2v372q-2 2 -2 4t2 3v755q0 15 14 15q6 0 11.5 -4.5t5.5 -10.5v-721l731 731q6 6 12 6l4 -1q8 -3 8 -15v-1136q0 -165 -114 -279q-117 -117 -279 -117q-161 0 -278 117q-109 109 -115 262zM33 395q3 -105 61 -188q58 -88 160 -133q69 -29 141 -29 q109 0 203 64q89 59 133 159q27 73 27 142v1099l-725 -727v-387z" />
<glyph unicode="V" horiz-adv-x="1681" d="M2 1551q2 7 8 10q2 2 5 1.5t6 -1.5q7 -3 10 -9l370 -741l1123 748q4 3 9 3l9 -3q5 -7 5 -14q0 -3 -1 -5l-758 -1515q-7 -11 -14 -11q-10 0 -14 11l-758 1515q-2 2 -2 5zM416 782l358 -716l719 1435z" />
<glyph unicode="W" horiz-adv-x="1681" d="M2 1542q-1 4 -1 6q0 10 11 13q3 1 6 1q10 0 13 -12l350 -1456l379 1446q3 10 14 10t14 -10l379 -1446l351 1456q3 12 13 12q3 0 5 -1q11 -2 11 -13q0 -3 -1 -6l-362 -1515q-4 -13 -15 -13q-12 0 -16 13l-379 1448l-379 -1448q-4 -13 -16 -13q-10 0 -14 13z" />
<glyph unicode="X" d="M2 1551q2 7 8 10q2 2 5 2t6 -2q7 -3 10 -9l360 -723l357 723q6 11 13 11q3 0 7 -2q6 -3 7.5 -10t-1.5 -11l-364 -745l378 -758q2 -3 2 -6q0 -4 -4 -8q-4 -9 -12 -9h-758q-8 0 -12 9q-4 4 -4 8q0 3 2 6l373 758l-373 745q-2 2 -2 5zM41 45h709l-359 715z" />
<glyph unicode="Y" d="M2 1552q6 9 14 9h758q2 0 12 -5q3 -6 3 -10q0 -2 -1 -4l-393 -1515q-3 -12 -13 -12q-2 0 -5 1q-6 2 -9.5 7.5t-2.5 11.5l196 749l-557 752q-4 5 -4 10q0 3 2 6zM47 1530l522 -707l185 707h-707z" />
<glyph unicode="Z" d="M2 37l748 1493h-734q-6 0 -10 5t-4 11q0 15 14 15h758q8 0 12 -7q4 -4 4 -8q0 -3 -2 -6l-747 -1495h733q14 0 14 -14q0 -6 -4 -11.5t-10 -5.5h-758q-8 0 -12 9q-4 4 -4 8q0 3 2 6z" />
<glyph unicode="[" horiz-adv-x="331" d="M0 -205v1751q0 6 4 10q5 5 12 5h166q6 0 11.5 -4.5t5.5 -10.5t-5.5 -11t-11.5 -5h-151v-1720h151q6 0 11.5 -4.5t5.5 -10.5t-5.5 -11t-11.5 -5h-166q-6 0 -12 6q-4 4 -4 10z" />
<glyph unicode="\" horiz-adv-x="530" d="M2 1542q-4 16 10 19q15 4 19 -11l364 -1515q1 -6 -2.5 -11.5t-9.5 -7.5q-14 -4 -18 11z" />
<glyph unicode="]" horiz-adv-x="331" d="M0 -205q0 15 16 15h152v1720h-152q-16 0 -16 16q0 15 16 15h166q8 0 13 -5q4 -4 4 -10v-1751q0 -6 -4 -10q-6 -6 -13 -6h-166q-16 0 -16 16z" />
<glyph unicode="^" d="M2 795l365 757q3 9 12 9q11 0 14 -9l395 -757q3 -4 0.5 -11t-8.5 -10q-11 -7 -20 6l-379 731l-350 -729q-7 -15 -21 -8q-15 7 -8 21z" />
<glyph unicode="_" horiz-adv-x="1314" d="M0 -205q0 15 14 15h1151q17 0 17 -15q0 -6 -5 -11t-12 -5h-1151q-6 0 -10 5t-4 11z" />
<glyph unicode="`" horiz-adv-x="331" d="M6 1536q-10 10 0 20t21 0l168 -165q8 -11 0 -23q-5 -4 -12 -4t-11 4z" />
<glyph unicode="a" horiz-adv-x="1681" d="M2 37l758 1515q6 9 14 9t14 -9l758 -1515q2 -2 2 -5t-2 -6q-2 -7 -8 -10q-2 -2 -4 -2t-6 2q-6 3 -10 9l-371 741l-1122 -748q-5 -3 -10 -3t-9 3q-5 5 -5 12q0 3 1 7zM55 76l1078 719l-359 716z" />
<glyph unicode="b" horiz-adv-x="1314" d="M0 606v182v379q0 164 115 279t278 115q164 0 279 -115q114 -114 114 -279v-2q171 -61 281 -209q115 -157 115 -350q0 -120 -45.5 -229t-128.5 -189q-81 -81 -189 -126.5t-229 -45.5q-120 0 -228.5 45.5t-189.5 126.5t-126.5 189.5t-45.5 228.5zM31 606q0 -114 43 -216.5 t121 -178.5q76 -78 178.5 -121t216.5 -43q115 0 217 43t180 121q77 77 120.5 179.5t43.5 215.5q0 185 -109 332q-96 134 -256 195q-12 -142 -114 -244q-117 -117 -279 -117h-362v-166zM31 803h362q111 0 203 63q88 58 133 160q27 73 27 141q0 112 -62 203q-63 92 -159 131 q-69 29 -142 29q-112 0 -203 -62q-89 -59 -133 -159q-26 -62 -26 -142v-364z" />
<glyph unicode="c" horiz-adv-x="1316" d="M0 788q0 157 59.5 299t165.5 248t248 166t299 60q218 0 402 -113q8 -5 8 -12q0 -4 -2 -9q-3 -5 -9.5 -6.5t-11.5 2.5q-178 107 -387 107q-152 0 -287.5 -57t-236.5 -160q-103 -101 -160 -237t-57 -288t57 -287.5t160 -236.5q102 -103 237.5 -161t286.5 -58q206 0 387 109 q13 8 21 -4q2 -5 2 -9q0 -8 -8 -14q-189 -113 -402 -113q-156 0 -298 60.5t-249 167.5q-106 106 -165.5 247.5t-59.5 298.5z" />
<glyph unicode="d" horiz-adv-x="1286" d="M0 31v1423q0 8 8 12q173 95 371 95q158 0 299 -59.5t248 -166.5q107 -106 167 -247.5t60 -299.5q0 -157 -60 -298.5t-167 -247.5q-107 -107 -248 -167.5t-299 -60.5l-12 6q-2 4 -2 15l366 1407q-161 88 -352 88q-185 0 -348 -86v-1413q0 -6 -4.5 -11.5t-10.5 -5.5 t-11 5.5t-5 11.5zM399 47q145 3 275.5 60t230.5 157q102 102 159.5 237.5t57.5 286.5t-57.5 287t-159.5 238q-63 63 -145 114z" />
<glyph unicode="e" d="M2 395q0 12 10 15l701 182l-701 182q-10 3 -10 14q0 12 10 15l701 182l-701 182q-10 3 -10 15q-1 2 -1 4q0 7 9 10l758 365q2 2 4 1q2 0 6 -1q6 -3 10 -9q2 -4 2 -7q0 -8 -10 -13l-719 -344l717 -189q10 0 10 -14q0 -11 -10 -14l-700 -183l700 -182q10 -3 10 -14 q0 -14 -10 -17l-717 -186l719 -344q6 -3 8 -9q1 -3 2 -5q0 -3 -2 -6q-4 -6 -10 -9q-3 -2 -5.5 -2t-4.5 2l-758 365q-9 3 -9 10q0 2 1 4z" />
<glyph unicode="f" d="M2 31v757q0 12 10 15l701 182l-701 182q-10 3 -10 15q-1 2 -1 4q0 7 9 10l758 365q2 1 4.5 1t5.5 -1q7 -3 10 -9q2 -4 2 -7q0 -8 -10 -13l-719 -344l717 -189q10 0 10 -14q0 -11 -10 -14l-745 -195v-745q0 -6 -5.5 -11.5t-11.5 -5.5t-10 5.5t-4 11.5z" />
<glyph unicode="g" horiz-adv-x="1679" d="M0 788q0 157 60 298.5t167 248.5q106 106 248 166t299 60q218 0 402 -113q13 -7 6 -21q-9 -14 -23 -4q-175 107 -385 107q-152 0 -287.5 -57t-236.5 -160q-100 -98 -157 -229t-60 -277l1470 194q16 0 19 -12q24 -95 24 -201q0 -157 -59.5 -298.5t-165.5 -247.5 q-107 -107 -249 -167.5t-298 -60.5t-298 60.5t-249 167.5t-167 248t-60 298zM33 774q1 -147 58.5 -278.5t158.5 -231.5q102 -103 237.5 -161t286.5 -58t286.5 58t237.5 161q103 102 160.5 237.5t57.5 286.5q0 96 -21 181z" />
<glyph unicode="h" horiz-adv-x="1314" d="M0 31v1515q0 12 10 15q2 1 4 1q7 0 13 -8l563 -741l563 741q5 8 12 8q3 0 6 -1q11 -4 11 -15v-1515q0 -11 -11 -15q-4 -1 -7 -1q-6 0 -11 5l-563 744l-563 -744q-5 -5 -11 -5q-3 0 -6 1q-10 3 -10 15zM31 76l540 712l-540 713v-1425zM610 788l541 -712v1425z" />
<glyph unicode="i" horiz-adv-x="163" d="M0 31v1515q0 15 14 15q6 0 11.5 -4.5t5.5 -10.5v-1515q0 -6 -5.5 -11.5t-11.5 -5.5t-10 5.5t-4 11.5z" />
<glyph unicode="j" horiz-adv-x="919" d="M0 23v2v2v2v2v2v2v2l2 2v2h2l752 754v751q0 6 5 10.5t11 4.5q14 0 14 -15v-1515q0 -9 -4 -11q-3 -6 -10 -6h-758h-2v2h-2h-2h-2v2h-2q0 2 -2 2v3h-2zM51 45h705v707z" />
<glyph unicode="k" horiz-adv-x="921" d="M0 31v757v758q0 15 14 15q6 0 11.5 -4.5t5.5 -10.5v-721l731 731q5 5 10 5l10 -5q5 -5 5 -10t-5 -10l-745 -748l745 -747q5 -5 5 -11q0 -3 -1 -5q-4 -11 -14 -11h-758q-7 0 -10 6q-4 2 -4 11zM31 45h704l-704 707v-707z" />
<glyph unicode="l" horiz-adv-x="919" d="M0 31v1515q0 15 14 15q6 0 11.5 -4.5t5.5 -10.5v-751l751 -754h2v-2q2 0 2 -2v-2v-2v-2v-2v-2v-2v-2h-2v-3l-2 -2h-2q0 -2 -2 -2h-2h-2v-2h-2h-758q-7 0 -10 6q-4 2 -4 11zM31 45h704l-704 707v-707z" />
<glyph unicode="m" horiz-adv-x="1681" d="M2 35l363 1515q4 11 14 11q12 0 16 -11l379 -1458l379 1458q4 11 16 11q11 0 15 -11l362 -1515q1 -2 1 -5q0 -5 -3 -10q-6 -6 -12 -6h-1516q-6 0 -12 6q-3 5 -3 10q0 3 1 5zM37 45h717l-373 1438zM795 45h718l-346 1438z" />
<glyph unicode="n" horiz-adv-x="919" d="M0 31v1515q0 12 10 15q2 1 4 1q8 0 15 -10l727 -1456v1450q0 6 5 10.5t11 4.5q14 0 14 -15v-1515v-2v-2v-2v-2h-2v-3h-2v-2h-2l-2 -2h-2h-2v-2h-2h-758q-7 0 -10 6q-4 2 -4 11zM31 45h717l-717 1436v-1436z" />
<glyph unicode="o" horiz-adv-x="1679" d="M0 788q0 157 59.5 299t165.5 248t248 166t299 60t299 -60t248 -166q107 -107 167 -248.5t60 -298.5t-60 -298t-167 -248t-249 -167.5t-298 -60.5t-298 60.5t-249 167.5q-106 106 -165.5 247.5t-59.5 298.5zM31 788q0 -152 57 -287.5t160 -236.5q102 -103 237.5 -161 t286.5 -58t286.5 58t237.5 161q103 102 161.5 237.5t58.5 286.5t-58.5 287t-161.5 238q-101 103 -236.5 160t-287.5 57t-287.5 -57t-236.5 -160q-103 -101 -160 -237t-57 -288z" />
<glyph unicode="p" horiz-adv-x="921" d="M0 31v1136q0 164 115 279t278 115q164 0 279 -115q116 -116 116 -279q0 -162 -116 -278q-117 -117 -279 -117h-362v-741q0 -6 -5.5 -11.5t-11.5 -5.5t-10 5.5t-4 11.5zM31 803h362q111 0 203 63q88 58 133 160q29 69 29 141q0 109 -64 203q-59 89 -159 133 q-73 27 -142 27q-112 0 -203 -62q-89 -59 -133 -159q-26 -62 -26 -142v-364z" />
<glyph unicode="q" horiz-adv-x="1679" d="M0 788q0 157 59.5 299t165.5 248t248 166t299 60q267 0 475 -162q206 -163 273 -410q3 -14 -13 -18l-706 -191l518 -516l221 -223q5 -5 5 -10.5t-5 -10.5q-10 -10 -20 0l-211 211q-107 -102 -245.5 -159.5t-291.5 -57.5q-156 0 -298 60.5t-249 167.5 q-106 106 -165.5 247.5t-59.5 298.5zM31 788q0 -152 57 -287.5t160 -236.5q102 -103 237.5 -161t286.5 -58q146 0 279 55t235 152l-524 526q-7 7 -4 15q0 7 10 10l717 192q-65 231 -258 379q-199 156 -455 156q-152 0 -287.5 -57t-236.5 -160q-103 -101 -160 -237t-57 -288z " />
<glyph unicode="r" horiz-adv-x="921" d="M0 31v757q0 9 4 11q2 4 10 4h224l-236 356q-2 2 -2 8q0 164 115 279t278 115q164 0 279 -115q116 -116 116 -279q0 -162 -116 -278q-117 -117 -279 -117h-98l489 -733q3 -4 2.5 -11t-6.5 -10q-5 -4 -11 -2.5t-9 7.5l-502 749h-227v-741q0 -6 -5.5 -11.5t-11.5 -5.5 t-10 5.5t-4 11.5zM31 1171l243 -368h119q111 0 203 63q88 58 133 160q29 69 29 141q0 109 -64 203q-59 89 -159 133q-73 27 -142 27q-112 0 -203 -62q-89 -59 -133 -159q-26 -70 -26 -138z" />
<glyph unicode="s" d="M0 401q0 6 5 10.5t11 4.5t10.5 -4.5t4.5 -10.5q3 -120 78 -217q82 -99 198 -127q52 -10 88 -10q125 0 223 76q101 78 130 196q12 43 12 87q0 118 -76 217q-77 99 -201 129l-178 45q-4 -4 -4 0q-135 30 -217 139q-84 105 -84 238q0 44 12 94q35 132 142 213q110 80 241 80 q51 0 94 -11q136 -35 218 -137q81 -108 84 -235q0 -6 -5.5 -11.5t-11.5 -5.5t-10 5.5t-4 11.5q-3 118 -78 215q-78 98 -199 127q-39 10 -88 10q-124 0 -223 -74q-100 -77 -129 -196q-12 -44 -12 -86q0 -123 75 -220q75 -91 187 -125h4l192 -47q138 -35 218 -139 q84 -108 84 -237q0 -45 -13 -95q-35 -133 -141 -213q-108 -82 -242 -82q-44 0 -94 13q-130 29 -217 137q-81 105 -84 235z" />
<glyph unicode="t" horiz-adv-x="921" d="M0 1538v2v2v2v4v2v2l2 2v2q2 0 2 3h2v2h2h2h2h2h758q11 0 14 -9q1 -2 1 -5q0 -6 -5 -13l-389 -358v-1145q0 -6 -4.5 -11.5t-11.5 -5.5q-6 0 -10.5 5.5t-4.5 11.5v1145l-358 360h-2v2h-2zM51 1530l328 -326l354 326h-682z" />
<glyph unicode="u" horiz-adv-x="921" d="M2 393v2v15v2v372q-2 2 -2 4t2 3v755q0 15 14 15q6 0 11.5 -4.5t5.5 -10.5v-721l731 731q6 6 12 6l4 -1q8 -3 8 -15v-1136q0 -165 -114 -279q-117 -117 -279 -117q-161 0 -278 117q-109 109 -115 262zM33 395q3 -105 61 -188q58 -88 160 -133q69 -29 141 -29 q109 0 203 64q89 59 133 159q27 73 27 142v1099l-725 -727v-387z" />
<glyph unicode="v" horiz-adv-x="1681" d="M2 1551q2 7 8 10q2 2 5 1.5t6 -1.5q7 -3 10 -9l370 -741l1123 748q4 3 9 3l9 -3q5 -7 5 -14q0 -3 -1 -5l-758 -1515q-7 -11 -14 -11q-10 0 -14 11l-758 1515q-2 2 -2 5zM416 782l358 -716l719 1435z" />
<glyph unicode="w" horiz-adv-x="1681" d="M2 1542q-1 4 -1 6q0 10 11 13q3 1 6 1q10 0 13 -12l350 -1456l379 1446q3 10 14 10t14 -10l379 -1446l351 1456q3 12 13 12q3 0 5 -1q11 -2 11 -13q0 -3 -1 -6l-362 -1515q-4 -13 -15 -13q-12 0 -16 13l-379 1448l-379 -1448q-4 -13 -16 -13q-10 0 -14 13z" />
<glyph unicode="x" d="M2 1551q2 7 8 10q2 2 5 2t6 -2q7 -3 10 -9l360 -723l357 723q6 11 13 11q3 0 7 -2q6 -3 7.5 -10t-1.5 -11l-364 -745l378 -758q2 -3 2 -6q0 -4 -4 -8q-4 -9 -12 -9h-758q-8 0 -12 9q-4 4 -4 8q0 3 2 6l373 758l-373 745q-2 2 -2 5zM41 45h709l-359 715z" />
<glyph unicode="y" d="M2 1552q6 9 14 9h758q2 0 12 -5q3 -6 3 -10q0 -2 -1 -4l-393 -1515q-3 -12 -13 -12q-2 0 -5 1q-6 2 -9.5 7.5t-2.5 11.5l196 749l-557 752q-4 5 -4 10q0 3 2 6zM47 1530l522 -707l185 707h-707z" />
<glyph unicode="z" d="M2 37l748 1493h-734q-6 0 -10 5t-4 11q0 15 14 15h758q8 0 12 -7q4 -4 4 -8q0 -3 -2 -6l-747 -1495h733q14 0 14 -14q0 -6 -4 -11.5t-10 -5.5h-758q-8 0 -12 9q-4 4 -4 8q0 3 2 6z" />
<glyph unicode="{" horiz-adv-x="528" d="M4 778q-7 10 0 21l164 192v555q0 6 4 10q2 5 10 5h197q16 0 16 -15q0 -16 -16 -16h-180v-545q0 -2 -4 -10l-158 -187l158 -186q4 -8 4 -10v-782h180q16 0 16 -15q0 -16 -16 -16h-197q-7 0 -10 6q-4 4 -4 10v791z" />
<glyph unicode="|" horiz-adv-x="163" d="M0 -410v1956q0 15 14 15q6 0 11.5 -4.5t5.5 -10.5v-1956q0 -6 -5.5 -11t-11.5 -5t-10 5t-4 11z" />
<glyph unicode="}" horiz-adv-x="528" d="M0 -205q0 15 14 15h183v782q0 6 4 10l157 186l-157 187q-4 4 -4 10v545h-183q-6 0 -10 5t-4 11q0 15 14 15h197q7 0 12 -5q4 -4 4 -10v-555l162 -192q11 -11 0 -21l-162 -192v-791q0 -6 -4 -10q-6 -6 -12 -6h-197q-6 0 -10 5t-4 11z" />
<glyph unicode="~" horiz-adv-x="897" d="M0 727q0 44 23 92q20 45 65 76q53 35 113 35q46 0 94 -25q49 -24 74 -67l55 -82q2 -2 2 -4q26 -33 59 -50q36 -20 80 -20q47 0 94 29q37 24 56 63q18 38 18 80q0 34 -10 59q-4 16 10 19q14 7 21 -8q10 -38 10 -70q0 -52 -23 -94q-23 -48 -65 -74q-53 -35 -111 -35 q-49 0 -94 25q-46 21 -76 67l-2 2l-49 76q-26 40 -63 58q-42 20 -80 20q-50 0 -95 -31q-36 -23 -57 -61q-18 -37 -18 -80q0 -30 10 -63q3 -4 0.5 -11t-8.5 -8q-14 -7 -21 8q-12 37 -12 74z" />
<glyph unicode="&#xa1;" horiz-adv-x="221" d="M0 1518q0 15 6 24q13 13 21 17q4 2 16 2q14 0 25 -7q12 -12 16 -20t4 -16q0 -13 -8 -25q-6 -8 -21 -16q-8 -4 -16 -4q-13 0 -25 8q-9 6 -16 20q-2 4 -2 17zM29 31v1321q0 14 14 14q6 0 11 -4t5 -10v-1321q0 -6 -5 -11.5t-11 -5.5t-10 5.5t-4 11.5z" />
<glyph unicode="&#xa6;" horiz-adv-x="163" d="M0 31v561q0 14 14 14q6 0 11.5 -4t5.5 -10v-561q0 -6 -5.5 -11.5t-11.5 -5.5t-10 5.5t-4 11.5zM0 985v561q0 15 14 15q6 0 11.5 -4.5t5.5 -10.5v-561q0 -6 -5.5 -10t-11.5 -4q-14 0 -14 14z" />
<glyph unicode="&#xa8;" horiz-adv-x="751" d="M0 1518q0 15 6 24q13 13 21 17q4 2 16 2q14 0 25 -7q12 -12 16 -20q2 -4 2 -16q0 -16 -6 -25q-6 -8 -21 -16q-8 -4 -16 -4q-13 0 -25 8q-9 6 -16 20q-2 4 -2 17zM530 1518q0 10 9 24q8 12 18 17q6 2 18 2q11 0 25 -7q12 -12 14 -20q4 -4 4 -16q0 -16 -6 -25 q-12 -12 -20 -16q-12 -4 -17 -4q-12 0 -24 8q-8 4 -16 20q-5 10 -5 17z" />
<glyph unicode="&#xaa;" horiz-adv-x="724" d="M0 788q0 6 5 10.5t11 4.5h562q14 0 14 -15q0 -6 -4 -11t-10 -5h-562q-6 0 -11 5t-5 11zM2 993l281 559q3 9 14 9q8 0 14 -9l279 -559q8 -15 -6 -22q-15 -4 -21 8l-133 264l-405 -270q-10 -7 -19 2q-8 5 -4 18zM55 1030l363 242l-121 239z" />
<glyph unicode="&#xab;" d="M6 778q-10 10 0 21l363 395q9 9 22 0q11 -12 0 -23l-354 -383l354 -382q10 -13 0 -23q-13 -9 -22 0zM369 778q-11 10 0 21l395 395q10 10 20 0q4 -4 4 -11t-4 -12l-383 -383l383 -382q4 -4 4 -11t-4 -12q-10 -10 -20 0z" />
<glyph unicode="&#xad;" horiz-adv-x="919" d="M0 788q0 15 14 15h758q14 0 14 -15q0 -6 -4 -11t-10 -5h-758q-6 0 -10 5t-4 11z" />
<glyph unicode="&#xb4;" horiz-adv-x="331" d="M2 1379q0 7 4 12l166 165q4 4 11 4t12 -4q7 -10 0 -20l-168 -168q-11 -10 -21 0q-4 4 -4 11z" />
<glyph unicode="&#xba;" horiz-adv-x="724" d="M0 788q0 6 5 10.5t11 4.5h562q14 0 14 -15q0 -6 -4 -11t-10 -5h-562q-6 0 -11 5t-5 11zM0 1266q0 89 51 166q50 71 131 106q57 23 115 23q90 0 166 -50q71 -50 106 -131q23 -58 23 -114q0 -92 -49 -166q-51 -72 -131 -107q-55 -22 -115 -22q-92 0 -166 49 q-71 50 -106 131q-25 55 -25 115zM31 1266q0 -82 47 -148q40 -64 115 -96q50 -21 104 -21q79 0 147 46q67 45 97 116q20 44 20 103q0 83 -45 147q-44 65 -117 96q-47 21 -102 21q-83 0 -150 -45q-69 -49 -94 -117q-22 -49 -22 -102z" />
<glyph unicode="&#xbb;" d="M2 395q0 7 4 11l383 382l-383 383q-4 5 -4 12t4 11q10 10 21 0l395 -395q4 -4 4 -11q0 -6 -4 -10l-395 -395q-11 -11 -21 0q-4 5 -4 12zM399 383q-10 10 0 23l355 382l-355 383q-11 11 0 23q5 4 12 4t11 -4l362 -395q10 -11 0 -21l-362 -395q-12 -11 -23 0z" />
<glyph unicode="&#xbf;" horiz-adv-x="907" d="M0 164q0 125 82 231q79 102 207 137h4l145 35q91 25 146 95t55 161q0 29 -6 64q-23 87 -96 143q-74 55 -164 55q-37 0 -64 -8q-88 -20 -147 -92q-56 -72 -56 -160q0 -6 -5 -10t-11 -4q-14 0 -14 14q0 104 63 179q65 81 162 104q33 8 72 8q102 0 182 -61q84 -64 107 -162 q8 -31 8 -70q0 -99 -62 -180q-64 -80 -164 -104l-139 -35h-4q-120 -30 -195 -127q-75 -94 -75 -213q0 -42 12 -86q26 -115 127 -193q95 -73 217 -73q43 0 86 12q118 26 195 123q75 94 75 213q0 6 5.5 10t11.5 4q14 0 14 -16q0 -124 -82 -230q-81 -105 -211 -135 q-47 -12 -94 -12q-127 0 -235 80q-106 79 -140 211q-12 46 -12 92zM356 1282q0 16 6 25q4 7 21 16q4 2 16 2q13 0 25 -6q10 -7 14 -19t4 -18q0 -14 -8 -25t-18 -14q-12 -4 -17 -4q-16 0 -24 8q-11 7 -17 19q-2 6 -2 16z" />
<glyph unicode="&#xc0;" horiz-adv-x="1732" d="M16 37l758 1515q6 9 14 9q9 0 15 -9l758 -1515q3 -4 0 -11t-9 -10q-4 -3 -10.5 0t-9.5 9l-371 741l-1122 -748q-10 -6 -19 0q-8 8 -4 19zM70 76l1077 719l-359 716zM698 1946q-10 10 0 20t21 0l168 -166q7 -11 0 -22q-5 -4 -12 -4t-11 4z" />
<glyph unicode="&#xc1;" horiz-adv-x="1681" d="M2 37l758 1515q6 9 14 9t14 -9l758 -1515q3 -4 0.5 -11t-8.5 -10q-4 -3 -10.5 0t-9.5 9l-371 741l-1122 -748q-10 -6 -19 0q-8 8 -4 19zM55 76l1078 719l-359 716zM682 1772q-11 11 0 22l166 166q11 11 22 0q7 -11 0 -21l-168 -167q-10 -10 -20 0z" />
<glyph unicode="&#xc2;" horiz-adv-x="1681" d="M2 37l758 1515q6 9 14 9t14 -9l758 -1515q3 -4 0.5 -11t-8.5 -10q-4 -3 -10.5 0t-9.5 9l-371 741l-1122 -748q-10 -6 -19 0q-8 8 -4 19zM55 76l1078 719l-359 716zM561 1780q-9 13 2 20l197 168q10 7 20 0l197 -168q13 -9 2 -20q-3 -5 -9.5 -5.5t-11.5 3.5l-188 157 l-186 -157q-10 -10 -23 2z" />
<glyph unicode="&#xc3;" horiz-adv-x="1681" d="M2 37l758 1515q6 9 14 9t14 -9l758 -1515q3 -4 0.5 -11t-8.5 -10q-4 -3 -10.5 0t-9.5 9l-371 741l-1122 -748q-10 -6 -19 0q-8 8 -4 19zM55 76l1078 719l-359 716zM530 1823q0 33 15 63q18 32 43 49q41 23 76 23q36 0 61 -14q25 -12 51 -46l35 -53q0 -2 2 -2 q12 -18 35 -31q21 -12 47 -12q32 0 57 19q22 14 35 36q10 20 10 50q0 24 -4 34q-3 6 -0.5 13t8.5 8q14 4 21 -10q6 -21 6 -45q0 -37 -14 -62q-14 -29 -43 -51q-38 -23 -76 -23q-30 0 -61 17q-32 16 -52 45v2l-32 47q-14 23 -39 35q-21 12 -47 12q-32 0 -58 -16 q-21 -15 -35 -39q-10 -23 -10 -49q0 -19 6 -37q7 -14 -8 -21q-16 -4 -20 11q-9 21 -9 47z" />
<glyph unicode="&#xc4;" horiz-adv-x="1681" d="M2 37l758 1515q6 9 14 9t14 -9l758 -1515q3 -4 0.5 -11t-8.5 -10q-4 -3 -10.5 0t-9.5 9l-371 741l-1122 -748q-10 -6 -19 0q-8 8 -4 19zM55 76l1078 719l-359 716zM463 1927q0 16 6 25q12 12 20 16q4 2 17 2q15 0 24 -6q14 -14 17 -20q2 -4 2 -17q0 -15 -6 -24 q-7 -10 -21 -17q-8 -4 -16 -4q-13 0 -25 8q-8 6 -16 21q-2 4 -2 16zM993 1927q0 13 8 25q7 10 19 16q6 2 18 2q13 0 25 -6q12 -12 14 -20q4 -4 4 -17q0 -15 -6 -24q-14 -14 -20 -17q-12 -4 -17 -4q-12 0 -24 8q-9 4 -17 21q-4 8 -4 16z" />
<glyph unicode="&#xc7;" horiz-adv-x="1316" d="M0 788q0 157 59.5 299t165.5 248t248 166t299 60q218 0 402 -113q13 -7 6 -21q-3 -5 -9.5 -6.5t-11.5 2.5q-178 107 -387 107q-152 0 -287.5 -57t-236.5 -160q-103 -101 -160 -237t-57 -288t57 -287.5t160 -236.5q102 -103 237.5 -161t286.5 -58q206 0 387 109 q13 8 21 -4q7 -13 -6 -23q-189 -113 -402 -113q-76 0 -176 21l-207 -250q-7 -11 -20 -2q-14 10 -2 22l196 238q-195 56 -338 199q-106 106 -165.5 247.5t-59.5 298.5z" />
<glyph unicode="&#xc8;" d="M2 395q0 12 10 15l701 182l-701 182q-10 3 -10 14q0 12 10 15l701 182l-701 182q-10 3 -10 15q-3 10 8 14l758 365q4 3 10.5 0t9.5 -9q6 -13 -8 -20l-719 -344l717 -189q10 0 10 -14q0 -11 -10 -14l-700 -183l700 -182q10 -3 10 -14q0 -14 -10 -17l-717 -186l719 -344 q6 -3 8.5 -9t-0.5 -11q-3 -6 -9.5 -9t-10.5 0l-758 365q-11 4 -8 14zM305 1946q-10 10 0 20q11 10 21 0l168 -166q7 -11 0 -22q-4 -4 -11 -4t-12 4z" />
<glyph unicode="&#xc9;" d="M2 395q0 12 10 15l701 182l-701 182q-10 3 -10 14q0 12 10 15l701 182l-701 182q-10 3 -10 15q-3 10 8 14l758 365q4 3 10.5 0t9.5 -9q6 -13 -8 -20l-719 -344l717 -189q10 0 10 -14q0 -11 -10 -14l-700 -183l700 -182q10 -3 10 -14q0 -14 -10 -17l-717 -186l719 -344 q6 -3 8.5 -9t-0.5 -11q-3 -6 -9.5 -9t-10.5 0l-758 365q-11 4 -8 14zM299 1778q-11 11 0 22l166 166q11 11 22 0q7 -10 0 -20l-168 -168q-10 -10 -20 0z" />
<glyph unicode="&#xca;" d="M2 395q0 12 10 15l701 182l-701 182q-10 3 -10 14q0 12 10 15l701 182l-701 182q-10 3 -10 15q-3 10 8 14l758 365q4 3 10.5 0t9.5 -9q6 -13 -8 -20l-719 -344l717 -189q10 0 10 -14q0 -11 -10 -14l-700 -183l700 -182q10 -3 10 -14q0 -14 -10 -17l-717 -186l719 -344 q6 -3 8.5 -9t-0.5 -11q-3 -6 -9.5 -9t-10.5 0l-758 365q-11 4 -8 14zM186 1780q-9 13 2 20l197 168q10 7 21 0l196 -168q13 -9 2 -20q-9 -13 -20 -2l-189 157l-186 -157q-11 -10 -23 2z" />
<glyph unicode="&#xcb;" d="M2 395q0 12 10 15l701 182l-701 182q-10 3 -10 14q0 12 10 15l701 182l-701 182q-10 3 -10 15q-3 10 8 14l758 365q4 3 10.5 0t9.5 -9q6 -13 -8 -20l-719 -344l717 -189q10 0 10 -14q0 -11 -10 -14l-700 -183l700 -182q10 -3 10 -14q0 -14 -10 -17l-717 -186l719 -344 q6 -3 8.5 -9t-0.5 -11q-3 -6 -9.5 -9t-10.5 0l-758 365q-11 4 -8 14zM86 1927q0 16 6 25q11 11 21 16q4 2 16 2q16 0 25 -6q12 -12 16 -20q2 -4 2 -17q0 -15 -6 -24q-6 -10 -21 -17q-8 -4 -16 -4q-13 0 -25 8q-8 6 -16 21q-2 4 -2 16zM616 1927q0 11 9 25q7 10 18 16 q6 2 19 2q12 0 24 -6q12 -12 14 -20q5 -5 5 -17q0 -14 -7 -24q-14 -14 -20 -17q-12 -4 -16 -4q-13 0 -25 8q-7 4 -16 21q-5 10 -5 16z" />
<glyph unicode="&#xcc;" horiz-adv-x="331" d="M6 1946q-10 10 0 20t21 0l168 -166q7 -11 0 -22q-5 -4 -12 -4t-11 4zM84 31v1515q0 15 14 15q6 0 11.5 -4.5t5.5 -10.5v-1515q0 -6 -5.5 -11.5t-11.5 -5.5t-10 5.5t-4 11.5z" />
<glyph unicode="&#xcd;" horiz-adv-x="331" d="M6 1778q-11 11 0 22l166 166q4 4 11 4t12 -4q7 -10 0 -20l-168 -168q-11 -10 -21 0zM86 31v1515q0 15 14 15q6 0 11.5 -4.5t5.5 -10.5v-1515q0 -6 -5.5 -11.5t-11.5 -5.5t-10 5.5t-4 11.5z" />
<glyph unicode="&#xce;" horiz-adv-x="559" d="M4 1780q-9 13 2 20l197 168q10 7 20 0l197 -168q13 -9 2 -20q-3 -5 -9.5 -5.5t-11.5 3.5l-188 157l-186 -157q-11 -10 -23 2zM203 31v1515q0 15 14 15q6 0 11 -4.5t5 -10.5v-1515q0 -6 -5 -11.5t-11 -5.5t-10 5.5t-4 11.5z" />
<glyph unicode="&#xcf;" horiz-adv-x="751" d="M0 1927q0 16 6 25q11 11 21 16q4 2 16 2q16 0 25 -6q12 -12 16 -20q2 -4 2 -17q0 -15 -6 -24q-6 -10 -21 -17q-8 -4 -16 -4q-13 0 -25 8q-8 6 -16 21q-2 4 -2 16zM297 31v1515q0 15 14 15q6 0 11.5 -4.5t5.5 -10.5v-1515q0 -6 -5.5 -11.5t-11.5 -5.5t-10 5.5t-4 11.5z M530 1927q0 11 9 25q7 10 18 16q6 2 18 2q13 0 25 -6q12 -12 14 -20q4 -4 4 -17q0 -15 -6 -24q-14 -14 -20 -17q-12 -4 -17 -4q-12 0 -24 8q-7 4 -16 21q-5 10 -5 16z" />
<glyph unicode="&#xd0;" horiz-adv-x="1449" d="M0 788q0 15 14 15h152v651q0 9 8 12q170 95 371 95q157 0 298 -59.5t249 -166.5q106 -106 165.5 -248t59.5 -299q0 -154 -56.5 -292t-158.5 -244q-103 -106 -238.5 -168t-288.5 -68q-9 0 -12 7q-4 2 -4 12l193 737h-555v-741q0 -6 -5.5 -11.5t-11.5 -5.5t-10 5.5t-4 11.5 v741h-152q-6 0 -10 5t-4 11zM197 803h575q4 0 12 -4q5 -9 2 -15l-192 -737q140 10 265 69t220 156q99 103 153 235.5t54 280.5q0 152 -57 288t-160 237q-103 103 -238 160t-286 57q-189 0 -348 -86v-641z" />
<glyph unicode="&#xd1;" horiz-adv-x="919" d="M0 31v1515q0 12 10 15q11 3 19 -9l727 -1456v1450q0 6 5 10.5t11 4.5q14 0 14 -15v-1515v-2v-2v-2v-2h-2v-3h-2v-2h-2l-2 -2h-2h-2v-2h-2h-758q-7 0 -10 6q-4 2 -4 11zM31 45h717l-717 1436v-1436zM145 1833q0 33 15 63q19 34 43 50q39 22 76 22q36 0 61 -14 q26 -13 51 -45l35 -54q0 -2 2 -2q11 -16 35 -30q23 -13 47 -13q32 0 57 19q22 13 35 37q10 20 10 49q0 25 -4 35q-3 6 -0.5 12t8.5 8q14 4 21 -10q6 -21 6 -45q0 -37 -14 -62q-14 -29 -43 -51q-36 -22 -76 -22q-32 0 -61 16q-32 16 -52 45v2l-32 47q-14 23 -39 35 q-21 12 -47 12q-32 0 -58 -16q-21 -15 -35 -39q-10 -23 -10 -49q0 -19 6 -37q6 -13 -8 -20q-16 -4 -20 10q-9 21 -9 47z" />
<glyph unicode="&#xd2;" horiz-adv-x="1679" d="M0 788q0 157 59.5 299t165.5 248t248 166t299 60t299 -60t248 -166q107 -107 167 -248.5t60 -298.5t-60 -298t-167 -248t-249 -167.5t-298 -60.5t-298 60.5t-249 167.5q-106 106 -165.5 247.5t-59.5 298.5zM31 788q0 -152 57 -287.5t160 -236.5q102 -103 237.5 -161 t286.5 -58t286.5 58t237.5 161q103 102 161.5 237.5t58.5 286.5t-58.5 287t-161.5 238q-101 103 -236.5 160t-287.5 57t-287.5 -57t-236.5 -160q-103 -101 -160 -237t-57 -288zM678 1946q-10 10 0 20t20 0l168 -166q7 -11 0 -22q-11 -11 -22 0z" />
<glyph unicode="&#xd3;" horiz-adv-x="1679" d="M0 788q0 157 59.5 299t165.5 248t248 166t299 60t299 -60t248 -166q107 -107 167 -248.5t60 -298.5t-60 -298t-167 -248t-249 -167.5t-298 -60.5t-298 60.5t-249 167.5q-106 106 -165.5 247.5t-59.5 298.5zM31 788q0 -152 57 -287.5t160 -236.5q102 -103 237.5 -161 t286.5 -58t286.5 58t237.5 161q103 102 161.5 237.5t58.5 286.5t-58.5 287t-161.5 238q-101 103 -236.5 160t-287.5 57t-287.5 -57t-236.5 -160q-103 -101 -160 -237t-57 -288zM676 1778q-11 11 0 22l166 166q11 11 22 0q7 -10 0 -20l-168 -168q-10 -10 -20 0z" />
<glyph unicode="&#xd4;" horiz-adv-x="1679" d="M0 788q0 157 59.5 299t165.5 248t248 166t299 60t299 -60t248 -166q107 -107 167 -248.5t60 -298.5t-60 -298t-167 -248t-249 -167.5t-298 -60.5t-298 60.5t-249 167.5q-106 106 -165.5 247.5t-59.5 298.5zM31 788q0 -152 57 -287.5t160 -236.5q102 -103 237.5 -161 t286.5 -58t286.5 58t237.5 161q103 102 161.5 237.5t58.5 286.5t-58.5 287t-161.5 238q-101 103 -236.5 160t-287.5 57t-287.5 -57t-236.5 -160q-103 -101 -160 -237t-57 -288zM561 1780q-9 13 2 20l197 168q10 7 20 0l197 -168q13 -9 2 -20q-3 -5 -9.5 -5.5t-11.5 3.5 l-188 157l-186 -157q-10 -10 -23 2z" />
<glyph unicode="&#xd5;" horiz-adv-x="1679" d="M0 788q0 157 59.5 299t165.5 248t248 166t299 60t299 -60t248 -166q107 -107 167 -248.5t60 -298.5t-60 -298t-167 -248t-249 -167.5t-298 -60.5t-298 60.5t-249 167.5q-106 106 -165.5 247.5t-59.5 298.5zM31 788q0 -152 57 -287.5t160 -236.5q102 -103 237.5 -161 t286.5 -58t286.5 58t237.5 161q103 102 161.5 237.5t58.5 286.5t-58.5 287t-161.5 238q-101 103 -236.5 160t-287.5 57t-287.5 -57t-236.5 -160q-103 -101 -160 -237t-57 -288zM524 1833q0 33 15 63q19 34 43 50q39 22 75 22q37 0 62 -14q26 -13 51 -45l35 -54q0 -2 2 -2 q11 -16 35 -30q23 -13 47 -13q32 0 57 19q22 13 35 37q10 20 10 49q0 25 -4 35q-3 6 -0.5 12t8.5 8q14 4 21 -10q6 -21 6 -45q0 -37 -14 -62q-14 -29 -43 -51q-36 -22 -76 -22q-33 0 -62 16q-30 15 -51 45v2l-33 47q-15 23 -38 35q-21 12 -48 12q-31 0 -57 -16 q-21 -15 -35 -39q-10 -23 -10 -49q0 -19 6 -37q6 -13 -8 -20q-17 -4 -21 10q-8 19 -8 47z" />
<glyph unicode="&#xd6;" horiz-adv-x="1679" d="M0 788q0 157 59.5 299t165.5 248t248 166t299 60t299 -60t248 -166q107 -107 167 -248.5t60 -298.5t-60 -298t-167 -248t-249 -167.5t-298 -60.5t-298 60.5t-249 167.5q-106 106 -165.5 247.5t-59.5 298.5zM31 788q0 -152 57 -287.5t160 -236.5q102 -103 237.5 -161 t286.5 -58t286.5 58t237.5 161q103 102 161.5 237.5t58.5 286.5t-58.5 287t-161.5 238q-101 103 -236.5 160t-287.5 57t-287.5 -57t-236.5 -160q-103 -101 -160 -237t-57 -288zM463 1927q0 16 6 25q12 12 20 16q4 2 17 2q15 0 24 -6q14 -14 17 -20q2 -4 2 -17q0 -15 -6 -24 q-7 -10 -21 -17q-8 -4 -16 -4q-13 0 -25 8q-8 6 -16 21q-2 4 -2 16zM993 1927q0 13 8 25q7 10 19 16q6 2 18 2q13 0 25 -6q12 -12 14 -20q4 -4 4 -17q0 -15 -6 -24q-14 -14 -20 -17q-12 -4 -17 -4q-12 0 -24 8q-9 4 -17 21q-4 8 -4 16z" />
<glyph unicode="&#xd7;" d="M2 395q0 7 4 11l369 382l-369 383q-4 5 -4 12t4 11t11 4t10 -4l368 -383l369 383q3 4 9.5 4t10.5 -4t4 -11t-4 -12l-368 -383l368 -382q4 -4 4 -11t-4 -12t-10.5 -5t-9.5 5l-369 383l-368 -383q-3 -5 -10 -5t-11 5t-4 12z" />
<glyph unicode="&#xd9;" horiz-adv-x="921" d="M2 393v2v15v2v372q-4 4 0 7v755q0 15 14 15q6 0 11.5 -4.5t5.5 -10.5v-721l731 731q8 8 16 5t8 -15v-1136q0 -165 -114 -279q-117 -117 -279 -117q-161 0 -278 117q-109 109 -115 262zM33 395q3 -105 61 -188q58 -88 160 -133q69 -29 141 -29q109 0 203 64q89 59 133 159 q27 73 27 142v1099l-725 -727v-387zM301 1946q-10 10 0 20q11 10 21 0l167 -166q7 -11 0 -22q-11 -11 -22 0z" />
<glyph unicode="&#xda;" horiz-adv-x="921" d="M2 393v2v15v2v372q-4 4 0 7v755q0 15 14 15q6 0 11.5 -4.5t5.5 -10.5v-721l731 731q8 8 16 5t8 -15v-1136q0 -165 -114 -279q-117 -117 -279 -117q-161 0 -278 117q-109 109 -115 262zM33 395q3 -105 61 -188q58 -88 160 -133q69 -29 141 -29q109 0 203 64q89 59 133 159 q27 73 27 142v1099l-725 -727v-387zM301 1778q-11 11 0 22l166 166q11 11 22 0q7 -10 0 -20l-167 -168q-10 -10 -21 0z" />
<glyph unicode="&#xdb;" horiz-adv-x="921" d="M2 393v2v15v2v372q-4 4 0 7v755q0 15 14 15q6 0 11.5 -4.5t5.5 -10.5v-721l731 731q8 8 16 5t8 -15v-1136q0 -165 -114 -279q-117 -117 -279 -117q-161 0 -278 117q-109 109 -115 262zM33 395q3 -105 61 -188q58 -88 160 -133q69 -29 141 -29q109 0 203 64q89 59 133 159 q27 73 27 142v1099l-725 -727v-387zM184 1780q-9 13 2 20l197 168q10 7 20 0l197 -168q13 -9 2 -20q-9 -13 -20 -2l-189 157l-186 -157q-11 -10 -23 2z" />
<glyph unicode="&#xdc;" horiz-adv-x="921" d="M2 393v2v15v2v372q-4 4 0 7v755q0 15 14 15q6 0 11.5 -4.5t5.5 -10.5v-721l731 731q8 8 16 5t8 -15v-1136q0 -165 -114 -279q-117 -117 -279 -117q-161 0 -278 117q-109 109 -115 262zM33 395q3 -105 61 -188q58 -88 160 -133q69 -29 141 -29q109 0 203 64q89 59 133 159 q27 73 27 142v1099l-725 -727v-387zM84 1927q0 16 6 25q11 11 21 16q4 2 16 2q16 0 25 -6q12 -12 16 -20q2 -4 2 -17q0 -15 -6 -24q-6 -10 -21 -17q-8 -4 -16 -4q-13 0 -25 8q-8 6 -16 21q-2 4 -2 16zM614 1927q0 11 9 25q7 10 18 16q6 2 18 2q13 0 25 -6q12 -12 14 -20 q4 -4 4 -17q0 -15 -6 -24q-14 -14 -20 -17q-12 -4 -17 -4q-12 0 -24 8q-9 4 -17 21q-4 8 -4 16z" />
<glyph unicode="&#xdd;" d="M2 1552q6 9 14 9h758q2 0 12 -5q4 -9 2 -14l-393 -1515q-4 -15 -18 -11q-6 2 -9.5 7.5t-2.5 11.5l196 749l-557 752q-6 9 -2 16zM47 1530l522 -707l185 707h-707zM301 1778q-11 11 0 22l166 166q11 11 22 0q7 -10 0 -20l-167 -168q-10 -10 -21 0z" />
<glyph unicode="&#xe0;" horiz-adv-x="1681" d="M2 37l758 1515q6 9 14 9t14 -9l758 -1515q3 -4 0.5 -11t-8.5 -10q-4 -3 -10.5 0t-9.5 9l-371 741l-1122 -748q-10 -6 -19 0q-8 8 -4 19zM55 76l1078 719l-359 716zM684 1946q-10 10 0 20t21 0l167 -166q7 -11 0 -22q-11 -11 -22 0z" />
<glyph unicode="&#xe1;" horiz-adv-x="1681" d="M2 37l758 1515q6 9 14 9t14 -9l758 -1515q3 -4 0.5 -11t-8.5 -10q-4 -3 -10.5 0t-9.5 9l-371 741l-1122 -748q-10 -6 -19 0q-8 8 -4 19zM55 76l1078 719l-359 716zM682 1772q-11 11 0 22l166 166q11 11 22 0q7 -11 0 -21l-168 -167q-10 -10 -20 0z" />
<glyph unicode="&#xe2;" horiz-adv-x="1681" d="M2 37l758 1515q6 9 14 9t14 -9l758 -1515q3 -4 0.5 -11t-8.5 -10q-4 -3 -10.5 0t-9.5 9l-371 741l-1122 -748q-10 -6 -19 0q-8 8 -4 19zM55 76l1078 719l-359 716zM561 1780q-9 13 2 20l197 168q10 7 20 0l197 -168q13 -9 2 -20q-3 -5 -9.5 -5.5t-11.5 3.5l-188 157 l-186 -157q-10 -10 -23 2z" />
<glyph unicode="&#xe3;" horiz-adv-x="1681" d="M2 37l758 1515q6 9 14 9t14 -9l758 -1515q3 -4 0.5 -11t-8.5 -10q-4 -3 -10.5 0t-9.5 9l-371 741l-1122 -748q-10 -6 -19 0q-8 8 -4 19zM55 76l1078 719l-359 716zM530 1823q0 33 15 63q18 32 43 49q41 23 76 23q36 0 61 -14q25 -12 51 -46l35 -53q0 -2 2 -2 q12 -18 35 -31q21 -12 47 -12q32 0 57 19q22 14 35 36q10 20 10 50q0 24 -4 34q-3 6 -0.5 13t8.5 8q14 4 21 -10q6 -21 6 -45q0 -37 -14 -62q-14 -29 -43 -51q-38 -23 -76 -23q-30 0 -61 17q-32 16 -52 45v2l-32 47q-14 23 -39 35q-21 12 -47 12q-32 0 -58 -16 q-21 -15 -35 -39q-10 -23 -10 -49q0 -19 6 -37q7 -14 -8 -21q-16 -4 -20 11q-9 21 -9 47z" />
<glyph unicode="&#xe4;" horiz-adv-x="1681" d="M2 37l758 1515q6 9 14 9t14 -9l758 -1515q3 -4 0.5 -11t-8.5 -10q-4 -3 -10.5 0t-9.5 9l-371 741l-1122 -748q-10 -6 -19 0q-8 8 -4 19zM55 76l1078 719l-359 716zM463 1927q0 16 6 25q12 12 20 16q4 2 17 2q15 0 24 -6q14 -14 17 -20q2 -4 2 -17q0 -15 -6 -24 q-7 -10 -21 -17q-8 -4 -16 -4q-13 0 -25 8q-8 6 -16 21q-2 4 -2 16zM993 1927q0 13 8 25q7 10 19 16q6 2 18 2q13 0 25 -6q12 -12 14 -20q4 -4 4 -17q0 -15 -6 -24q-14 -14 -20 -17q-12 -4 -17 -4q-12 0 -24 8q-9 4 -17 21q-4 8 -4 16z" />
<glyph unicode="&#xe7;" horiz-adv-x="1316" d="M0 788q0 157 59.5 299t165.5 248t248 166t299 60q218 0 402 -113q13 -7 6 -21q-3 -5 -9.5 -6.5t-11.5 2.5q-178 107 -387 107q-152 0 -287.5 -57t-236.5 -160q-103 -101 -160 -237t-57 -288t57 -287.5t160 -236.5q102 -103 237.5 -161t286.5 -58q206 0 387 109 q13 8 21 -4q7 -13 -6 -23q-189 -113 -402 -113q-76 0 -176 21l-207 -250q-7 -11 -20 -2q-14 10 -2 22l196 238q-195 56 -338 199q-106 106 -165.5 247.5t-59.5 298.5z" />
<glyph unicode="&#xe8;" d="M2 395q0 12 10 15l701 182l-701 182q-10 3 -10 14q0 12 10 15l701 182l-701 182q-10 3 -10 15q-3 10 8 14l758 365q4 3 10.5 0t9.5 -9q6 -13 -8 -20l-719 -344l717 -189q10 0 10 -14q0 -11 -10 -14l-700 -183l700 -182q10 -3 10 -14q0 -14 -10 -17l-717 -186l719 -344 q6 -3 8.5 -9t-0.5 -11q-3 -6 -9.5 -9t-10.5 0l-758 365q-11 4 -8 14zM305 1946q-10 10 0 20q11 10 21 0l168 -166q7 -11 0 -22q-4 -4 -11 -4t-12 4z" />
<glyph unicode="&#xe9;" d="M2 395q0 12 10 15l701 182l-701 182q-10 3 -10 14q0 12 10 15l701 182l-701 182q-10 3 -10 15q-3 10 8 14l758 365q4 3 10.5 0t9.5 -9q6 -13 -8 -20l-719 -344l717 -189q10 0 10 -14q0 -11 -10 -14l-700 -183l700 -182q10 -3 10 -14q0 -14 -10 -17l-717 -186l719 -344 q6 -3 8.5 -9t-0.5 -11q-3 -6 -9.5 -9t-10.5 0l-758 365q-11 4 -8 14zM299 1778q-11 11 0 22l166 166q11 11 22 0q7 -10 0 -20l-168 -168q-10 -10 -20 0z" />
<glyph unicode="&#xea;" d="M2 395q0 12 10 15l701 182l-701 182q-10 3 -10 14q0 12 10 15l701 182l-701 182q-10 3 -10 15q-3 10 8 14l758 365q4 3 10.5 0t9.5 -9q6 -13 -8 -20l-719 -344l717 -189q10 0 10 -14q0 -11 -10 -14l-700 -183l700 -182q10 -3 10 -14q0 -14 -10 -17l-717 -186l719 -344 q6 -3 8.5 -9t-0.5 -11q-3 -6 -9.5 -9t-10.5 0l-758 365q-11 4 -8 14zM186 1780q-9 13 2 20l197 168q10 7 21 0l196 -168q13 -9 2 -20q-9 -13 -20 -2l-189 157l-186 -157q-11 -10 -23 2z" />
<glyph unicode="&#xeb;" d="M2 395q0 12 10 15l701 182l-701 182q-10 3 -10 14q0 12 10 15l701 182l-701 182q-10 3 -10 15q-3 10 8 14l758 365q4 3 10.5 0t9.5 -9q6 -13 -8 -20l-719 -344l717 -189q10 0 10 -14q0 -11 -10 -14l-700 -183l700 -182q10 -3 10 -14q0 -14 -10 -17l-717 -186l719 -344 q6 -3 8.5 -9t-0.5 -11q-3 -6 -9.5 -9t-10.5 0l-758 365q-11 4 -8 14zM86 1927q0 16 6 25q11 11 21 16q4 2 16 2q16 0 25 -6q12 -12 16 -20q2 -4 2 -17q0 -15 -6 -24q-6 -10 -21 -17q-8 -4 -16 -4q-13 0 -25 8q-8 6 -16 21q-2 4 -2 16zM616 1927q0 11 9 25q7 10 18 16 q6 2 19 2q12 0 24 -6q12 -12 14 -20q5 -5 5 -17q0 -14 -7 -24q-14 -14 -20 -17q-12 -4 -16 -4q-13 0 -25 8q-7 4 -16 21q-5 10 -5 16z" />
<glyph unicode="&#xec;" horiz-adv-x="331" d="M6 1946q-10 10 0 20t21 0l168 -166q7 -11 0 -22q-5 -4 -12 -4t-11 4zM84 31v1515q0 15 14 15q6 0 11.5 -4.5t5.5 -10.5v-1515q0 -6 -5.5 -11.5t-11.5 -5.5t-10 5.5t-4 11.5z" />
<glyph unicode="&#xed;" horiz-adv-x="331" d="M6 1778q-11 11 0 22l166 166q4 4 11 4t12 -4q7 -10 0 -20l-168 -168q-11 -10 -21 0zM86 31v1515q0 15 14 15q6 0 11.5 -4.5t5.5 -10.5v-1515q0 -6 -5.5 -11.5t-11.5 -5.5t-10 5.5t-4 11.5z" />
<glyph unicode="&#xee;" horiz-adv-x="559" d="M4 1780q-9 13 2 20l197 168q10 7 20 0l197 -168q13 -9 2 -20q-3 -5 -9.5 -5.5t-11.5 3.5l-188 157l-186 -157q-11 -10 -23 2zM203 31v1515q0 15 14 15q6 0 11 -4.5t5 -10.5v-1515q0 -6 -5 -11.5t-11 -5.5t-10 5.5t-4 11.5z" />
<glyph unicode="&#xef;" horiz-adv-x="751" d="M0 1927q0 16 6 25q11 11 21 16q4 2 16 2q16 0 25 -6q12 -12 16 -20q2 -4 2 -17q0 -15 -6 -24q-6 -10 -21 -17q-8 -4 -16 -4q-13 0 -25 8q-8 6 -16 21q-2 4 -2 16zM297 31v1515q0 15 14 15q6 0 11.5 -4.5t5.5 -10.5v-1515q0 -6 -5.5 -11.5t-11.5 -5.5t-10 5.5t-4 11.5z M530 1927q0 11 9 25q7 10 18 16q6 2 18 2q13 0 25 -6q12 -12 14 -20q4 -4 4 -17q0 -15 -6 -24q-14 -14 -20 -17q-12 -4 -17 -4q-12 0 -24 8q-7 4 -16 21q-5 10 -5 16z" />
<glyph unicode="&#xf1;" horiz-adv-x="919" d="M0 31v1515q0 12 10 15q11 3 19 -9l727 -1456v1450q0 6 5 10.5t11 4.5q14 0 14 -15v-1515v-2v-2v-2v-2h-2v-3h-2v-2h-2l-2 -2h-2h-2v-2h-2h-758q-7 0 -10 6q-4 2 -4 11zM31 45h717l-717 1436v-1436zM145 1833q0 33 15 63q19 34 43 50q39 22 76 22q36 0 61 -14 q26 -13 51 -45l35 -54q0 -2 2 -2q11 -16 35 -30q23 -13 47 -13q32 0 57 19q22 13 35 37q10 20 10 49q0 25 -4 35q-3 6 -0.5 12t8.5 8q14 4 21 -10q6 -21 6 -45q0 -37 -14 -62q-14 -29 -43 -51q-36 -22 -76 -22q-32 0 -61 16q-32 16 -52 45v2l-32 47q-14 23 -39 35 q-21 12 -47 12q-32 0 -58 -16q-21 -15 -35 -39q-10 -23 -10 -49q0 -19 6 -37q6 -13 -8 -20q-16 -4 -20 10q-9 21 -9 47z" />
<glyph unicode="&#xf2;" horiz-adv-x="1679" d="M0 788q0 157 59.5 299t165.5 248t248 166t299 60t299 -60t248 -166q107 -107 167 -248.5t60 -298.5t-60 -298t-167 -248t-249 -167.5t-298 -60.5t-298 60.5t-249 167.5q-106 106 -165.5 247.5t-59.5 298.5zM31 788q0 -152 57 -287.5t160 -236.5q102 -103 237.5 -161 t286.5 -58t286.5 58t237.5 161q103 102 161.5 237.5t58.5 286.5t-58.5 287t-161.5 238q-101 103 -236.5 160t-287.5 57t-287.5 -57t-236.5 -160q-103 -101 -160 -237t-57 -288zM678 1946q-10 10 0 20t20 0l168 -166q7 -11 0 -22q-11 -11 -22 0z" />
<glyph unicode="&#xf3;" horiz-adv-x="1679" d="M0 788q0 157 59.5 299t165.5 248t248 166t299 60t299 -60t248 -166q107 -107 167 -248.5t60 -298.5t-60 -298t-167 -248t-249 -167.5t-298 -60.5t-298 60.5t-249 167.5q-106 106 -165.5 247.5t-59.5 298.5zM31 788q0 -152 57 -287.5t160 -236.5q102 -103 237.5 -161 t286.5 -58t286.5 58t237.5 161q103 102 161.5 237.5t58.5 286.5t-58.5 287t-161.5 238q-101 103 -236.5 160t-287.5 57t-287.5 -57t-236.5 -160q-103 -101 -160 -237t-57 -288zM676 1778q-11 11 0 22l166 166q11 11 22 0q7 -10 0 -20l-168 -168q-10 -10 -20 0z" />
<glyph unicode="&#xf4;" horiz-adv-x="1679" d="M0 788q0 157 59.5 299t165.5 248t248 166t299 60t299 -60t248 -166q107 -107 167 -248.5t60 -298.5t-60 -298t-167 -248t-249 -167.5t-298 -60.5t-298 60.5t-249 167.5q-106 106 -165.5 247.5t-59.5 298.5zM31 788q0 -152 57 -287.5t160 -236.5q102 -103 237.5 -161 t286.5 -58t286.5 58t237.5 161q103 102 161.5 237.5t58.5 286.5t-58.5 287t-161.5 238q-101 103 -236.5 160t-287.5 57t-287.5 -57t-236.5 -160q-103 -101 -160 -237t-57 -288zM561 1780q-9 13 2 20l197 168q10 7 20 0l197 -168q13 -9 2 -20q-3 -5 -9.5 -5.5t-11.5 3.5 l-188 157l-186 -157q-10 -10 -23 2z" />
<glyph unicode="&#xf5;" horiz-adv-x="1679" d="M0 788q0 157 59.5 299t165.5 248t248 166t299 60t299 -60t248 -166q107 -107 167 -248.5t60 -298.5t-60 -298t-167 -248t-249 -167.5t-298 -60.5t-298 60.5t-249 167.5q-106 106 -165.5 247.5t-59.5 298.5zM31 788q0 -152 57 -287.5t160 -236.5q102 -103 237.5 -161 t286.5 -58t286.5 58t237.5 161q103 102 161.5 237.5t58.5 286.5t-58.5 287t-161.5 238q-101 103 -236.5 160t-287.5 57t-287.5 -57t-236.5 -160q-103 -101 -160 -237t-57 -288zM524 1833q0 33 15 63q19 34 43 50q39 22 75 22q37 0 62 -14q26 -13 51 -45l35 -54q0 -2 2 -2 q11 -16 35 -30q23 -13 47 -13q32 0 57 19q22 13 35 37q10 20 10 49q0 25 -4 35q-3 6 -0.5 12t8.5 8q14 4 21 -10q6 -21 6 -45q0 -37 -14 -62q-14 -29 -43 -51q-36 -22 -76 -22q-33 0 -62 16q-30 15 -51 45v2l-33 47q-15 23 -38 35q-21 12 -48 12q-31 0 -57 -16 q-21 -15 -35 -39q-10 -23 -10 -49q0 -19 6 -37q6 -13 -8 -20q-17 -4 -21 10q-8 19 -8 47z" />
<glyph unicode="&#xf6;" horiz-adv-x="1679" d="M0 788q0 157 59.5 299t165.5 248t248 166t299 60t299 -60t248 -166q107 -107 167 -248.5t60 -298.5t-60 -298t-167 -248t-249 -167.5t-298 -60.5t-298 60.5t-249 167.5q-106 106 -165.5 247.5t-59.5 298.5zM31 788q0 -152 57 -287.5t160 -236.5q102 -103 237.5 -161 t286.5 -58t286.5 58t237.5 161q103 102 161.5 237.5t58.5 286.5t-58.5 287t-161.5 238q-101 103 -236.5 160t-287.5 57t-287.5 -57t-236.5 -160q-103 -101 -160 -237t-57 -288zM463 1927q0 16 6 25q12 12 20 16q4 2 17 2q15 0 24 -6q14 -14 17 -20q2 -4 2 -17q0 -15 -6 -24 q-7 -10 -21 -17q-8 -4 -16 -4q-13 0 -25 8q-8 6 -16 21q-2 4 -2 16zM993 1927q0 13 8 25q7 10 19 16q6 2 18 2q13 0 25 -6q12 -12 14 -20q4 -4 4 -17q0 -15 -6 -24q-14 -14 -20 -17q-12 -4 -17 -4q-12 0 -24 8q-9 4 -17 21q-4 8 -4 16z" />
<glyph unicode="&#xf7;" horiz-adv-x="921" d="M0 788q0 15 14 15h758q16 0 16 -15q0 -16 -16 -16h-758q-6 0 -10 5t-4 11zM350 522q0 17 8 25q4 9 19 16q12 4 16 4q13 0 25 -8q13 -6 16 -20q4 -8 4 -17q0 -13 -8 -24q-8 -12 -18 -17q-6 -2 -19 -2q-12 0 -24 6q-13 13 -15 21q-4 8 -4 16zM350 1055q0 13 8 24t19 17 q6 2 16 2q16 0 25 -6q13 -10 16 -21q4 -8 4 -16q0 -17 -8 -25q-5 -9 -18 -16q-12 -4 -19 -4q-8 0 -24 8q-12 8 -15 18q-4 12 -4 19z" />
<glyph unicode="&#xf9;" horiz-adv-x="921" d="M2 393v2v15v2v372q-4 4 0 7v755q0 15 14 15q6 0 11.5 -4.5t5.5 -10.5v-721l731 731q8 8 16 5t8 -15v-1136q0 -165 -114 -279q-117 -117 -279 -117q-161 0 -278 117q-109 109 -115 262zM33 395q3 -105 61 -188q58 -88 160 -133q69 -29 141 -29q109 0 203 64q89 59 133 159 q27 73 27 142v1099l-725 -727v-387zM301 1946q-10 10 0 20q11 10 21 0l167 -166q7 -11 0 -22q-11 -11 -22 0z" />
<glyph unicode="&#xfa;" horiz-adv-x="921" d="M2 393v2v15v2v372q-4 4 0 7v755q0 15 14 15q6 0 11.5 -4.5t5.5 -10.5v-721l731 731q8 8 16 5t8 -15v-1136q0 -165 -114 -279q-117 -117 -279 -117q-161 0 -278 117q-109 109 -115 262zM33 395q3 -105 61 -188q58 -88 160 -133q69 -29 141 -29q109 0 203 64q89 59 133 159 q27 73 27 142v1099l-725 -727v-387zM301 1778q-11 11 0 22l166 166q11 11 22 0q7 -10 0 -20l-167 -168q-10 -10 -21 0z" />
<glyph unicode="&#xfb;" horiz-adv-x="921" d="M2 393v2v15v2v372q-4 4 0 7v755q0 15 14 15q6 0 11.5 -4.5t5.5 -10.5v-721l731 731q8 8 16 5t8 -15v-1136q0 -165 -114 -279q-117 -117 -279 -117q-161 0 -278 117q-109 109 -115 262zM33 395q3 -105 61 -188q58 -88 160 -133q69 -29 141 -29q109 0 203 64q89 59 133 159 q27 73 27 142v1099l-725 -727v-387zM184 1780q-9 13 2 20l197 168q10 7 20 0l197 -168q13 -9 2 -20q-9 -13 -20 -2l-189 157l-186 -157q-11 -10 -23 2z" />
<glyph unicode="&#xfc;" horiz-adv-x="921" d="M2 393v2v15v2v372q-4 4 0 7v755q0 15 14 15q6 0 11.5 -4.5t5.5 -10.5v-721l731 731q8 8 16 5t8 -15v-1136q0 -165 -114 -279q-117 -117 -279 -117q-161 0 -278 117q-109 109 -115 262zM33 395q3 -105 61 -188q58 -88 160 -133q69 -29 141 -29q109 0 203 64q89 59 133 159 q27 73 27 142v1099l-725 -727v-387zM84 1927q0 16 6 25q11 11 21 16q4 2 16 2q16 0 25 -6q12 -12 16 -20q2 -4 2 -17q0 -15 -6 -24q-6 -10 -21 -17q-8 -4 -16 -4q-13 0 -25 8q-8 6 -16 21q-2 4 -2 16zM614 1927q0 11 9 25q7 10 18 16q6 2 18 2q13 0 25 -6q12 -12 14 -20 q4 -4 4 -17q0 -15 -6 -24q-14 -14 -20 -17q-12 -4 -17 -4q-12 0 -24 8q-9 4 -17 21q-4 8 -4 16z" />
<glyph unicode="&#xfd;" d="M2 1552q6 9 14 9h758q2 0 12 -5q4 -9 2 -14l-393 -1515q-4 -15 -18 -11q-6 2 -9.5 7.5t-2.5 11.5l196 749l-557 752q-6 9 -2 16zM47 1530l522 -707l185 707h-707zM301 1778q-11 11 0 22l166 166q11 11 22 0q7 -10 0 -20l-167 -168q-10 -10 -21 0z" />
<glyph unicode="&#xff;" d="M2 1552q6 9 14 9h758q2 0 12 -5q4 -9 2 -14l-393 -1515q-4 -15 -18 -11q-6 2 -9.5 7.5t-2.5 11.5l196 749l-557 752q-6 9 -2 16zM47 1530l522 -707l185 707h-707zM88 1927q0 16 6 25q11 11 21 16q4 2 16 2q16 0 25 -6q12 -12 16 -20q2 -4 2 -17q0 -15 -6 -24 q-6 -10 -21 -17q-8 -4 -16 -4q-13 0 -25 8q-8 6 -16 21q-2 4 -2 16zM618 1927q0 11 9 25q7 10 18 16q6 2 19 2q12 0 24 -6q12 -12 14 -20q5 -5 5 -17q0 -14 -7 -24q-14 -14 -20 -17q-12 -4 -16 -4q-13 0 -25 8q-7 4 -16 21q-5 10 -5 16z" />
<glyph unicode="&#x178;" d="M2 1552q6 9 14 9h758q2 0 12 -5q4 -9 2 -14l-393 -1515q-4 -15 -18 -11q-6 2 -9.5 7.5t-2.5 11.5l196 749l-557 752q-6 9 -2 16zM47 1530l522 -707l185 707h-707zM88 1927q0 16 6 25q11 11 21 16q4 2 16 2q16 0 25 -6q12 -12 16 -20q2 -4 2 -17q0 -15 -6 -24 q-6 -10 -21 -17q-8 -4 -16 -4q-13 0 -25 8q-8 6 -16 21q-2 4 -2 16zM618 1927q0 11 9 25q7 10 18 16q6 2 19 2q12 0 24 -6q12 -12 14 -20q5 -5 5 -17q0 -14 -7 -24q-14 -14 -20 -17q-12 -4 -16 -4q-13 0 -25 8q-7 4 -16 21q-5 10 -5 16z" />
<glyph unicode="&#x2c6;" horiz-adv-x="559" d="M4 1370q-9 14 2 21l197 168q10 7 20 0l197 -168q5 -3 5.5 -9.5t-3.5 -11.5q-3 -5 -9.5 -5.5t-11.5 3.5l-188 158l-186 -158q-11 -10 -23 2z" />
<glyph unicode="&#x2dc;" horiz-adv-x="630" d="M0 1423q0 36 14 64q18 32 43 49q41 23 76 23t62 -15q26 -13 51 -45l35 -53q0 -2 2 -2q12 -19 34 -31q21 -12 48 -12q33 0 57 18q22 13 35 37q10 20 10 49q0 25 -4 35q-3 6 -0.5 13t8.5 8q14 3 21 -11q6 -21 6 -45q0 -34 -15 -61q-14 -29 -43 -51q-38 -23 -75 -23 q-33 0 -62 16q-29 14 -51 46v2l-33 47q-14 23 -39 35q-21 12 -47 12q-30 0 -57 -17q-22 -16 -35 -38q-10 -23 -10 -50q0 -19 6 -37q6 -13 -8 -20q-17 -4 -21 10q-8 19 -8 47z" />
<glyph unicode="&#x2000;" horiz-adv-x="985" />
<glyph unicode="&#x2001;" horiz-adv-x="1971" />
<glyph unicode="&#x2002;" horiz-adv-x="985" />
<glyph unicode="&#x2003;" horiz-adv-x="1971" />
<glyph unicode="&#x2004;" horiz-adv-x="657" />
<glyph unicode="&#x2005;" horiz-adv-x="492" />
<glyph unicode="&#x2006;" horiz-adv-x="328" />
<glyph unicode="&#x2007;" horiz-adv-x="328" />
<glyph unicode="&#x2008;" horiz-adv-x="246" />
<glyph unicode="&#x2009;" horiz-adv-x="394" />
<glyph unicode="&#x200a;" horiz-adv-x="109" />
<glyph unicode="&#x2010;" horiz-adv-x="526" d="M0 788q0 15 14 15h363q16 0 16 -15q0 -16 -16 -16h-363q-6 0 -10 5t-4 11z" />
<glyph unicode="&#x2011;" horiz-adv-x="526" d="M0 788q0 15 14 15h363q16 0 16 -15q0 -16 -16 -16h-363q-6 0 -10 5t-4 11z" />
<glyph unicode="&#x2012;" horiz-adv-x="526" d="M0 788q0 15 14 15h363q16 0 16 -15q0 -16 -16 -16h-363q-6 0 -10 5t-4 11z" />
<glyph unicode="&#x2013;" horiz-adv-x="919" d="M0 788q0 15 14 15h758q14 0 14 -15q0 -6 -4 -11t-10 -5h-758q-6 0 -10 5t-4 11z" />
<glyph unicode="&#x2014;" horiz-adv-x="1314" d="M0 788q0 15 14 15h1151q17 0 17 -15q0 -6 -5 -11t-12 -5h-1151q-6 0 -10 5t-4 11z" />
<glyph unicode="&#x2018;" horiz-adv-x="329" d="M2 1540q-6 13 6 21q18 4 21 -9l166 -362q3 -6 0.5 -12.5t-7.5 -8.5q-12 -6 -20 7z" />
<glyph unicode="&#x2019;" horiz-adv-x="329" d="M1 1177.5q-2 6.5 1 12.5l166 362q6 12 20 9q13 -9 7 -21l-166 -364q-2 -5 -8.5 -7.5t-12.5 0.5q-5 2 -7 8.5z" />
<glyph unicode="&#x201a;" horiz-adv-x="329" d="M2 39l166 364q8 13 20 7q5 -2 7.5 -8.5t-0.5 -12.5l-166 -362q-2 -6 -8.5 -9t-12.5 0q-12 8 -6 21z" />
<glyph unicode="&#x201c;" horiz-adv-x="522" d="M2 1540q-6 13 6 21q18 4 21 -9l166 -362q3 -6 0.5 -12.5t-7.5 -8.5q-12 -6 -20 7zM195 1540q-6 13 6 21q17 4 20 -9l166 -362q3 -6 1 -12.5t-7 -8.5q-12 -6 -21 7z" />
<glyph unicode="&#x201d;" horiz-adv-x="522" d="M1 1177.5q-2 6.5 1 12.5l166 362q6 12 20 9q13 -9 7 -21l-166 -364q-2 -5 -8.5 -7.5t-12.5 0.5q-5 2 -7 8.5zM194 1177.5q-2 6.5 1 12.5l165 362q6 13 21 9q12 -8 6 -21l-166 -364q-2 -5 -8 -7.5t-12 0.5q-5 2 -7 8.5z" />
<glyph unicode="&#x201e;" horiz-adv-x="522" d="M2 39l166 364q8 13 20 7q5 -2 7.5 -8.5t-0.5 -12.5l-166 -362q-2 -6 -8.5 -9t-12.5 0q-12 8 -6 21zM195 39l165 364q9 13 21 7q5 -2 7 -8.5t-1 -12.5l-166 -362q-2 -6 -8 -9t-12 0q-12 8 -6 21z" />
<glyph unicode="&#x2022;" horiz-adv-x="360" d="M0 788q0 37 18 64q19 29 50 41q23 10 45 10q33 0 63 -20q29 -19 41 -49q10 -23 10 -46q0 -33 -20 -63q-19 -29 -49 -41q-23 -10 -45 -10q-34 0 -64 20q-29 19 -41 49q-8 19 -8 45z" />
<glyph unicode="&#x2026;" horiz-adv-x="610" d="M0 59q0 17 8 25q6 10 19 16q6 2 16 2q16 0 25 -6q14 -10 16 -20q4 -8 4 -17q0 -16 -8 -24q-8 -11 -19 -17q-12 -4 -18 -4q-7 0 -25 9q-11 7 -14 20q-4 8 -4 16zM193 59q0 17 8 25q7 10 18 16q6 2 19 2q12 0 24 -6q12 -12 14 -20q5 -10 5 -17q0 -15 -9 -24q-8 -12 -18 -17 q-12 -4 -16 -4q-12 0 -25 9q-13 6 -16 20q-4 8 -4 16zM389 59q0 13 8 25q7 10 19 16q6 2 18 2q13 0 25 -6q12 -12 14 -20q4 -4 4 -17q0 -15 -6 -24q-14 -14 -20 -17q-12 -4 -17 -4q-10 0 -24 9q-9 5 -17 20q-4 8 -4 16z" />
<glyph unicode="&#x202f;" horiz-adv-x="394" />
<glyph unicode="&#x205f;" horiz-adv-x="492" />
<glyph unicode="&#x20ac;" horiz-adv-x="1120" d="M0 592q0 14 14 14h179q-21 88 -21 182t21 183h-179q-14 0 -14 14q0 6 4 11t10 5h189q11 44 30 89q60 136 173 245q111 106 257.5 166t307.5 60q16 0 16 -15q0 -16 -16 -16q-239 0 -430 -127q-189 -123 -279 -326q-23 -59 -29 -76h541q6 0 11.5 -5t5.5 -11t-5.5 -10 t-11.5 -4h-549q-22 -93 -22 -183q0 -89 22 -182h549q6 0 11.5 -4t5.5 -10t-5.5 -11.5t-11.5 -5.5h-541q3 -10 29 -75q58 -131 166 -236q106 -103 247 -161t296 -58q16 0 16 -14q0 -6 -4.5 -11.5t-11.5 -5.5q-246 0 -447 133q-200 132 -291 340q-19 47 -30 88h-189 q-6 0 -10 5.5t-4 11.5z" />
<glyph unicode="&#xe000;" horiz-adv-x="1566" d="M0 0v1567h1567v-1567h-1567z" />
</font>
</defs>
</svg>
